<?xml version="1.0" encoding="UTF-8" standalone="no"?>
<svg
   viewBox="0 0 258.552 186.373"
   version="1.1"
   id="svg35"
   sodipodi:docname="ajinomoto.svg"
   inkscape:version="1.3.2 (091e20e, 2023-11-25, custom)"
   xmlns:inkscape="http://www.inkscape.org/namespaces/inkscape"
   xmlns:sodipodi="http://sodipodi.sourceforge.net/DTD/sodipodi-0.dtd"
   xmlns="http://www.w3.org/2000/svg"
   xmlns:svg="http://www.w3.org/2000/svg">
  <sodipodi:namedview
     id="namedview35"
     pagecolor="#505050"
     bordercolor="#eeeeee"
     borderopacity="1"
     inkscape:showpageshadow="0"
     inkscape:pageopacity="0"
     inkscape:pagecheckerboard="0"
     inkscape:deskcolor="#505050"
     inkscape:zoom="7.9893546"
     inkscape:cx="129.29705"
     inkscape:cy="93.123917"
     inkscape:window-width="2880"
     inkscape:window-height="1766"
     inkscape:window-x="-11"
     inkscape:window-y="-11"
     inkscape:window-maximized="1"
     inkscape:current-layer="svg35" />
  <defs
     id="defs1">
    <style
       id="style1">.cls-1{fill:#fff;}.cls-2{fill:#ed1c24;}</style>
  </defs>
  <title
     id="title1">aji-svg-logo</title>
  <g
     id="Layer_2"
     data-name="Layer 2">
    <g
       id="LOGO">
      <path
         class="cls-1"
         d="M76.56,181.436H98.3v-4l3.626,4h11.2v-1.895a17.519,17.519,0,0,0,8.248,1.9h50.364c4.713,0,8.432-1.149,11.241-3.705v3.7h16.591V177.77a16.2,16.2,0,0,0,11.209,4.029,17.626,17.626,0,0,0,7.963-1.788,7.708,7.708,0,1,0,8.218-12.987c.3-6.586-1.912-10.809-4.423-13.365-2.806-2.828-6.762-4.264-11.759-4.264H171.737a16.492,16.492,0,0,0-10.538,3.17l-.389-3.17H149.3l-2.717,5.477-2.576-5.477H132.729l-.462,3.479a18.02,18.02,0,0,0-19.142-1.824v-1.654H98.013v3.227l-2.9-3.227H56.305l-6.932,8.143a18.881,18.881,0,0,0-13.457,2.736c-4.806,2.96-8.812,9.457-7.2,15.2.45,1.6,2.533,6.832,10.425,6.864,6.236,0,10.394-2.61,13.876-5.671l2.282,4.765h5.72l2.87,4.938,4.193-.553A13.215,13.215,0,0,0,76.56,181.436Z"
         id="path1" />
      <path
         class="cls-1"
         d="M32.02,27.255a10.265,10.265,0,0,0,2.84-.236l1.979-.548a9.485,9.485,0,0,0,4.43.988,10.991,10.991,0,0,0,4.813-1.049l2.679-1.292-1.236-9.413h.942V4.829h-3.84V1.367H34.8l-1,3.579-2.293.177A11,11,0,0,0,26.4,3.957,11.266,11.266,0,0,0,21.349,5.1V0H0V27.255Z"
         id="path2" />
      <path
         class="cls-1"
         d="M93.839,0V5.5a11.359,11.359,0,0,0-5.809-1.511,13.009,13.009,0,0,0-2.71.28L86.584,0H73.892l-.748,2.932L72.343,0H62.37l-.789,2.875L60.848,0H48.1l8.043,27.255H66.573l.752-2.63.734,2.63H78.5l1-3.372c1.908,2.274,4.94,3.372,8.616,3.372h22.333l.321,3.332,4-.287c2.059-.147,6.846-1.234,6.846-8.118V15.857h-7.391V0Z"
         id="path3" />
      <path
         class="cls-1"
         d="M152.054,27.255V22.873l1.8,4.382h9.607l1.892-4.576c1.772,2.989,5.185,4.839,9.47,4.839,5.972,0,10.457-3.624,10.457-9.392V13.977c0-5.789-4.435-9.726-10.543-9.726l-15.164,0-.9,2.713-.9-2.713h-5.959V0H140.1V15.682h-2.975V0H125V27.255Z"
         id="path4" />
      <path
         class="cls-1"
         d="M225.048,27.255h33.5v-11.4H251.16V0H230.771V5.5a11.368,11.368,0,0,0-5.809-1.51,13,13,0,0,0-2.71.28L223.517,0H210.824l-.748,2.93-.8-2.93H199.3l-.789,2.875L197.78,0H185.038l8.044,27.255h10.425l.751-2.629.734,2.629h10.439l1-3.372C218.34,26.156,221.372,27.255,225.048,27.255Z"
         id="path5" />
      <path
         class="cls-1"
         d="M152,48.064c0-5.712-3.247-9.983-10-9.983H130.364a11.285,11.285,0,0,0-8.736,4.231L96.071,72.138a71.9,71.9,0,0,0-16.385-2.483A36.634,36.634,0,0,0,52.595,81.19c-5.409,5.6-9.822,16.556-5.04,27.1,3.784,8.34,11.735,13.873,22.883,14.191,16.7.477,27.246-11.147,36.437-21.707a84.559,84.559,0,0,0,17.688,2.458v8.982a9.569,9.569,0,0,0,9.558,9.558H147.57c-4.914,3.261-7.035,7.3-7.3,11.062-.339,4.836,4.46,14.3,19.309,14.3a21.146,21.146,0,0,0,16.24-7.546A27.11,27.11,0,0,0,182,124.325c7.154-4.423,14.371-9.294,20.2-14.95,8.222-7.981,12.417-16.527,11.678-25.685a15.327,15.327,0,0,0-15.055-14.063c-7.542,0-13.145,4.135-15.583,10.44,0-4.048-1.407-7.285-5.025-8.629A17.068,17.068,0,1,0,152,54.988Z"
         id="path6" />
      <path
         class="cls-2"
         d="M17.234,4.109V7.4H8.155v4.6h6.9v2.88h-6.9v5.034h9.4v3.229H4.113V4.109Z"
         id="path7" />
      <path
         class="cls-2"
         d="M20.29,11.412A6.96,6.96,0,0,1,26.4,8.066c4.162,0,5.761,2.475,5.761,5.412v6.43a1.045,1.045,0,0,0,1.164,1.164h.435v1.979a6.674,6.674,0,0,1-1.745.261,3.256,3.256,0,0,1-3.025-1.425A6.979,6.979,0,0,1,24.478,23.4c-3,0-4.713-1.659-4.713-4.074,0-2.531,1.6-4.8,7.448-4.8h1.223V13.479c0-1.862-.844-2.706-2.59-2.706a4.063,4.063,0,0,0-3.4,2.008Zm8.147,8.379V16.824H27.185c-3.026,0-3.87.96-3.87,2.27,0,1.338.757,1.92,2.124,1.92A4.1,4.1,0,0,0,28.437,19.791Z"
         id="path8" />
      <path
         class="cls-2"
         d="M44.352,11.588h-3.84v6.924c0,1.571.815,2.182,2.095,2.182a5.4,5.4,0,0,0,1.4-.2l.29,2.211a6.85,6.85,0,0,1-3.026.64c-3.257,0-4.509-1.8-4.509-5.032V11.732l-2.036-.523V9l2.269-.176.932-3.346h2.589V8.94h3.84Z"
         id="path9" />
      <path
         class="cls-2"
         d="M75.427,23.137H71.179L67.367,9.493l-3.9,13.644H59.222L53.605,4.109h4.044l3.782,14.839L65.5,4.109H69.2l4.074,14.926L77.084,4.109H81.07Z"
         id="path10" />
      <path
         class="cls-2"
         d="M85.146,16.242v1.222c0,2.095,1.193,3.288,3.374,3.288a3.416,3.416,0,0,0,3.374-2.095l2.562,1.019c-1.018,2.473-3,3.725-6.344,3.725-4.275,0-6.69-2.474-6.69-5.791V13.827c0-3.142,2.3-5.731,6.6-5.731,4.1,0,6.43,2.647,6.43,5.877v2.27Zm0-2.008H91.2v-.7a2.71,2.71,0,0,0-3.026-2.85c-2.094,0-3.025,1.163-3.025,2.909Z"
         id="path11" />
      <path
         class="cls-2"
         d="M101.673,4.109V23.137H97.949V4.109Z"
         id="path12" />
      <path
         class="cls-2"
         d="M110.111,4.109V23.137h-3.724V4.109Z"
         id="path13" />
      <path
         class="cls-2"
         d="M114.475,19.967H117.5v2.211c0,2.356-.582,3.84-3.026,4.015l-.145-1.513c1.164-.232,1.425-.582,1.425-1.543h-1.28Z"
         id="path14" />
      <path
         class="cls-2"
         d="M133.008,4.109V19.791H141.3v3.346H129.11V4.109Z"
         id="path15" />
      <path
         class="cls-2"
         d="M147.934,8.94v14.2H144.21V8.94Zm-.231-4.83v2.88h-3.23V4.109Z"
         id="path16" />
      <path
         class="cls-2"
         d="M160.708,23.137h-4.1L150.525,8.358H154.8l3.869,11.7,3.87-11.7h4.276Z"
         id="path17" />
      <path
         class="cls-2"
         d="M171.852,16.242v1.222c0,2.095,1.194,3.288,3.375,3.288a3.417,3.417,0,0,0,3.374-2.095l2.561,1.019c-1.017,2.473-3,3.725-6.343,3.725-4.275,0-6.689-2.474-6.689-5.791V13.827c0-3.142,2.3-5.731,6.6-5.731,4.1,0,6.429,2.647,6.429,5.877v2.27Zm0-2.008H177.9v-.7a2.711,2.711,0,0,0-3.025-2.85c-2.095,0-3.027,1.163-3.027,2.909Z"
         id="path18" />
      <path
         class="cls-2"
         d="M212.352,23.137h-4.246L204.3,9.493l-3.9,13.644h-4.248L190.533,4.109h4.043l3.784,14.839,4.072-14.839h3.7L210.2,19.035l3.811-14.926H218Z"
         id="path19" />
      <path
         class="cls-2"
         d="M222.074,16.242v1.222c0,2.095,1.192,3.288,3.375,3.288a3.42,3.42,0,0,0,3.375-2.095l2.559,1.019c-1.018,2.473-3,3.725-6.344,3.725-4.276,0-6.69-2.474-6.69-5.791V13.827c0-3.142,2.3-5.731,6.6-5.731,4.1,0,6.429,2.647,6.429,5.877v2.27Zm0-2.008h6.052v-.7a2.71,2.71,0,0,0-3.027-2.85c-2.1,0-3.025,1.163-3.025,2.909Z"
         id="path20" />
      <path
         class="cls-2"
         d="M238.6,4.109V23.137h-3.724V4.109Z"
         id="path21" />
      <path
         class="cls-2"
         d="M247.039,4.109V23.137h-3.724V4.109Z"
         id="path22" />
      <path
         class="cls-2"
         d="M251.4,19.967h3.027v3.17H251.4Z"
         id="path23" />
      <path
         class="cls-2"
         d="M68.884,170.829c0,4.186-.377,6.28-2.526,6.863l-.812.22,1.357,2.337.429-.058c4.4-.592,6.722-3.416,6.722-8.168V155.138h-5.17Z"
         id="path24" />
      <rect
         class="cls-2"
         x="78.815"
         y="155.138"
         width="5.135"
         height="20.616"
         id="rect24" />
      <path
         class="cls-2"
         d="M121.375,154.783c-6.513,0-10.559,4.086-10.559,10.664s4.046,10.672,10.559,10.672,10.558-4.087,10.558-10.672-4.044-10.664-10.558-10.664m5.145,10.662c0,4.648-2.067,7.77-5.145,7.77s-5.148-3.121-5.148-7.77,2.07-7.776,5.148-7.776,5.145,3.125,5.145,7.776"
         id="path25" />
      <path
         class="cls-2"
         d="M171.737,154.783c-6.516,0-10.562,4.086-10.562,10.664s4.046,10.672,10.562,10.672,10.556-4.087,10.556-10.672-4.044-10.664-10.556-10.664m5.139,10.662c0,4.648-2.067,7.77-5.139,7.77s-5.152-3.121-5.152-7.77,2.07-7.776,5.152-7.776,5.139,3.125,5.139,7.776"
         id="path26" />
      <path
         class="cls-2"
         d="M210.777,154.783c-6.513,0-10.558,4.086-10.558,10.664s4.045,10.672,10.558,10.672,10.568-4.087,10.568-10.672-4.049-10.664-10.568-10.664m5.149,10.662c0,4.648-2.067,7.77-5.149,7.77s-5.14-3.121-5.14-7.77,2.065-7.776,5.14-7.776,5.149,3.125,5.149,7.776"
         id="path27" />
      <path
         class="cls-2"
         d="M58.915,155.125s-4.726,5.506-7.558,8.819A13.357,13.357,0,0,0,38.9,165.1c-4.669,2.877-8.178,11.529.278,11.563,4.19.019,8.271-1.621,13.427-7.727.147-.176.414-.487.557-.653a18.506,18.506,0,0,1,5.758,7.472h5.117V155.125Zm-9.507,11.1c-3.034,3.657-5.467,6.1-7.385,7.25-4.391,2.635-5.6-2.675-.136-6.215C44.007,165.892,47.22,165.293,49.408,166.229Zm5.747-.311c1.439-1.708,3.043-3.624,3.76-4.478v7.714A20.513,20.513,0,0,0,55.156,165.917Z"
         id="path28" />
      <path
         class="cls-2"
         d="M193.9,175.754v-17.2a51.518,51.518,0,0,1,5.666.477v-3.894H182.987v3.894a51.4,51.4,0,0,1,5.664-.477v17.2Z"
         id="path29" />
      <path
         class="cls-2"
         d="M152.143,163.815,146.4,175.754h-1.5l-5.683-12.1a1.967,1.967,0,0,1,.018.408c-.472,3.79-.984,9.706-1.037,11.7h-4.176c.818-4.168,2.587-16.481,3.062-20.616h3.347l6.021,12.619,6.348-12.619h3.01c.519,4.13,1.379,11.048,3.06,20.616H153.03c-.069-2.051-.525-7.91-.9-11.531A1.9,1.9,0,0,1,152.143,163.815Z"
         id="path30" />
      <path
         class="cls-2"
         d="M103.184,166.6a5.763,5.763,0,0,1,.573.834l-.067-1.384V155.138h3.764v20.616l-3.008.007L93.2,163.313a4.77,4.77,0,0,1-.639-.887l.067,1.346v11.982H88.862V155.138H92.63Z"
         id="path31" />
      <path
         class="cls-2"
         d="M225.394,173.838a2.038,2.038,0,1,0-4.076,0h.252a1.785,1.785,0,0,1,3.57,0Z"
         id="path32" />
      <path
         class="cls-2"
         d="M225.14,173.838a1.785,1.785,0,0,1-3.57,0h-.249a2.037,2.037,0,0,0,4.073,0Z"
         id="path33" />
      <path
         class="cls-2"
         d="M222.877,174.076h.643c.3,0,.315.125.315.455a1.96,1.96,0,0,0,.043.477h.451v-.068c-.09-.035-.09-.122-.09-.469,0-.445-.081-.518-.24-.6a.582.582,0,0,0,.3-.564.617.617,0,0,0-.615-.671h-1.174v2.375h.4v-1.972h.7a.28.28,0,0,1,.287.319c0,.231-.1.32-.32.32h-.7Z"
         id="path34" />
      <circle
         class="cls-2"
         cx="168.938"
         cy="57.112"
         r="11.251"
         id="circle34" />
      <path
         class="cls-2"
         d="M164.864,75.6c-5,0-9.809,4.444-19.114,7.753-.007,0,0-35.843,0-35.871A3.775,3.775,0,0,0,142,43.893h-11.63a5.6,5.6,0,0,0-4.212,2.053L97.993,78.829a63.718,63.718,0,0,0-14.787-3.2c-11.829-1.125-20.986,3.52-26.278,9.431-12.01,13.411-3.347,31.587,13.511,31.587,11.063,0,18.223-4.513,28.833-16.067C102.1,97.5,104.78,94.2,104.78,94.2l.024-.03c7.81,2.286,14.812,3.343,25.573,3.343V112.2a3.742,3.742,0,0,0,3.74,3.741H142a3.741,3.741,0,0,0,3.738-3.741V94.943a80.287,80.287,0,0,0,15.717-6.553l-.019,31.334c-2.915,1.971-11.176,7.652-11.176,7.652-6.136,4.358-4.479,7.98-1.624,10.457,2.934,2.541,6.757,3.475,10.945,3.475,9.216,0,16.732-7.932,16.768-20.352,14.984-9.089,32.555-20.921,31.78-36.071a9.4,9.4,0,0,0-9.307-9.288,9.266,9.266,0,0,0-5.658,16.607c-2.69,6.214-8.913,11.748-16.791,17.4V79.424a3.932,3.932,0,0,0-3.933-3.826ZM89.391,88.86l-5.748,6.082c-4.5,4.768-9.727,11.189-15.093,11.189a5.372,5.372,0,0,1-4.748-2.678,9.24,9.24,0,0,1,.644-9.8c4.594-6.411,11.327-7.454,18.4-6.461A25.145,25.145,0,0,1,89.391,88.86Zm40.99-25.078V85.769a65.122,65.122,0,0,1-16.813-2.006Z"
         id="path35" />
    </g>
  </g>
</svg>
