<?xml version="1.0" encoding="UTF-8" standalone="no"?>
<svg
   version="1.0"
   width="500.000000pt"
   height="500.000000pt"
   viewBox="0 0 500.000000 500.000000"
   preserveAspectRatio="xMidYMid meet"
   id="svg3"
   sodipodi:docname="APM.svg"
   inkscape:version="1.3.2 (091e20e, 2023-11-25, custom)"
   xmlns:inkscape="http://www.inkscape.org/namespaces/inkscape"
   xmlns:sodipodi="http://sodipodi.sourceforge.net/DTD/sodipodi-0.dtd"
   xmlns="http://www.w3.org/2000/svg"
   xmlns:svg="http://www.w3.org/2000/svg">
  <defs
     id="defs3" />
  <sodipodi:namedview
     id="namedview3"
     pagecolor="#505050"
     bordercolor="#eeeeee"
     borderopacity="1"
     inkscape:showpageshadow="0"
     inkscape:pageopacity="0"
     inkscape:pagecheckerboard="0"
     inkscape:deskcolor="#505050"
     inkscape:document-units="pt"
     showgrid="false"
     inkscape:zoom="2.2335"
     inkscape:cx="333.33333"
     inkscape:cy="334.67652"
     inkscape:window-width="2880"
     inkscape:window-height="1766"
     inkscape:window-x="-11"
     inkscape:window-y="-11"
     inkscape:window-maximized="1"
     inkscape:current-layer="svg3" />
  <g
     transform="matrix(0.1,0,0,-0.1,0,500)"
     fill="#000000"
     stroke="none"
     id="g3"
     style="display:none">
    <path
       d="m 2255,3349 c -392,-58 -613,-130 -817,-267 -88,-58 -200,-176 -237,-249 -149,-297 46,-601 503,-783 221,-87 472,-130 766,-130 353,0 646,62 903,191 190,96 345,248 391,383 56,166 14,324 -124,470 -160,168 -416,289 -747,351 -231,43 -482,57 -638,34 z m -341,-356 c 3,-10 35,-124 71,-253 36,-129 79,-281 96,-336 16,-56 29,-104 29,-108 0,-3 -34,-6 -75,-6 h -74 l -12,43 c -19,72 -14,69 -129,70 h -105 l -13,-44 c -8,-24 -15,-50 -18,-56 -3,-13 -134,-19 -146,-8 -3,3 30,128 73,278 44,149 79,275 79,279 0,5 -11,8 -25,8 -32,0 -31,6 4,85 l 30,65 h 105 c 91,0 105,-2 110,-17 z m 542,-2 c 51,-23 108,-90 128,-149 20,-58 20,-162 1,-209 -37,-89 -116,-145 -227,-161 l -53,-7 -3,-88 -3,-87 h -74 -75 l -2,283 -3,282 -27,3 c -30,4 -34,12 -18,40 6,9 19,38 30,65 l 19,47 h 133 c 108,0 141,-4 174,-19 z m 465,-155 c 29,-96 56,-172 59,-170 3,3 28,80 55,172 l 50,167 83,3 82,3 30,-67 c 37,-81 37,-94 5,-94 -14,0 -25,-3 -25,-6 0,-4 32,-123 70,-265 39,-142 70,-265 70,-273 0,-13 -13,-16 -70,-16 -83,0 -70,-22 -131,212 -24,93 -47,168 -50,168 -3,0 -32,-86 -64,-190 l -58,-191 -56,3 -55,3 -48,170 c -26,94 -48,178 -48,188 -1,48 -20,0 -70,-173 l -54,-190 h -73 c -49,0 -73,4 -73,12 0,6 34,130 75,275 41,144 75,265 75,268 0,3 -11,5 -25,5 -32,0 -31,10 2,92 l 28,68 h 81 81 z"
       id="path1" />
    <path
       d="m 1791,2678 c -13,-51 -26,-99 -28,-105 -4,-10 11,-13 57,-13 55,0 62,2 57,18 -2,9 -15,56 -28,105 -13,48 -26,87 -29,87 -3,0 -16,-42 -29,-92 z"
       id="path2" />
    <path
       d="m 2300,2735 c 0,-113 0,-115 23,-115 43,1 103,36 116,69 31,73 -23,161 -98,161 h -41 z"
       id="path3" />
  </g>
  <path
     style="fill:#f6fdfa;stroke:none;stroke-width:0.633674;fill-opacity:1"
     d="m 224.75646,372.56583 c -17.3958,-1.16829 -24.02465,-1.73782 -32.95101,-2.83106 C 150.56567,364.68398 116.42959,354.89366 83.764222,338.74818 30.712272,312.52626 1.6544983,277.13249 1.6512416,238.73061 c -0.0013,-25.0105 8.9262344,-43.28916 32.4485594,-66.43055 8.619894,-8.4803 13.937737,-12.88237 22.416487,-18.55625 35.407523,-23.69429 76.602222,-37.65783 140.992222,-47.79134 20.80805,-3.27473 26.31548,-3.72503 45.62446,-3.7305 53.00564,-0.0151 110.19679,10.17096 153.89107,27.40856 10.79314,4.25794 30.15342,13.93278 38.7455,19.36215 29.8976,18.89238 49.85067,41.19716 58.21544,65.07681 6.78211,19.36145 5.15335,41.38678 -4.44852,60.15648 -12.66411,24.75573 -41.54251,49.81804 -76.12961,66.06958 -39.74945,18.67717 -82.46141,28.82894 -134.7882,32.0364 -9.30721,0.5705 -46.44841,0.73178 -53.86219,0.23388 z M 99.36505,302.68133 c 2.49237,-0.74751 2.07492,0.21101 7.3,-16.76201 l 1.14871,-3.73143 17.44103,0.32146 c 20.33502,0.37482 21.50865,0.62851 23.41108,5.06056 0.64085,1.49299 1.98328,5.81011 2.98316,9.59363 l 1.81798,6.87911 13.75495,-0.22917 c 8.45694,-0.14096 14.01137,-0.4856 14.42071,-0.89493 0.72952,-0.72952 -0.85458,-6.95588 -7.88963,-31.01064 -2.24242,-7.66744 -9.50888,-33.3312 -16.14771,-57.03057 -6.63883,-23.69936 -12.33894,-43.71409 -12.6669,-44.47716 -1.00442,-2.33692 -4.30427,-2.72418 -23.24445,-2.72793 -13.6716,-0.003 -17.91022,0.18132 -18.16239,0.78855 -0.1809,0.43565 -2.35678,5.31958 -4.835288,10.85319 -6.533321,14.58655 -6.797481,16.87001 -1.951553,16.87001 1.35409,0 3.177087,0.27189 4.051131,0.6042 l 1.58915,0.60419 -1.59394,5.89095 c -0.87665,3.24002 -4.82866,17.15449 -8.782227,30.92104 -12.260242,42.69081 -18.06657,64.35302 -18.06657,67.40264 0,0.95084 0.439361,1.70631 1.108939,1.90681 1.915224,0.57344 21.908604,-0.11106 24.313818,-0.8325 z m 118.43138,0.75181 c 0.15348,-7.03096 1.30552,-32.10184 1.48328,-32.27961 0.13601,-0.136 3.7765,-0.79457 8.08986,-1.46334 12.01504,-1.86292 19.00972,-4.2808 26.62281,-9.20277 8.11275,-5.24502 15.20291,-14.15564 18.39229,-23.11468 1.34995,-3.79202 1.4668,-5.14972 1.47269,-17.10916 0.005,-10.51147 -0.20905,-13.77628 -1.12272,-17.10917 -3.95293,-14.4195 -15.68638,-28.52 -27.36988,-32.89136 -5.60191,-2.09595 -12.28422,-2.59434 -34.78461,-2.59434 h -21.68869 l -2.75019,6.81199 c -1.51261,3.74659 -4.01521,9.34432 -5.56135,12.43937 -1.88765,3.77878 -2.69253,6.09983 -2.45017,7.06551 0.39892,1.58941 3.15131,2.82613 6.32462,2.84179 4.00626,0.0198 3.7204,-3.22752 4.24785,48.25364 0.26543,25.90744 0.50194,49.7421 0.52558,52.96591 l 0.0431,5.86147 h 14.25765 c 7.8417,0 14.26231,-0.21385 14.268,-0.47525 z m 80.90254,-20.43594 c 9.62024,-33.81672 14.33761,-48.61221 16.04329,-50.31787 0.41679,-0.41682 0.62943,-0.0462 0.62943,1.09722 0,2.85728 17.49129,68.27506 18.49568,69.17418 0.10873,0.0973 4.95265,0.38202 10.7643,0.63268 l 10.56664,0.45571 1.91092,-6.24367 c 1.051,-3.43402 3.94155,-12.94477 6.42342,-21.13499 7.02476,-23.1818 14.00953,-43.90696 14.59719,-43.31272 0.7444,0.7527 5.38476,16.88473 11.00063,38.24334 5.85152,22.25474 6.95403,25.83728 8.78971,28.56121 2.28946,3.39736 3.56218,3.74035 13.76978,3.71099 10.12743,-0.0292 13.50858,-0.73111 13.81376,-2.86796 0.21991,-1.53963 -5.03496,-22.1966 -17.21564,-67.67504 -4.75084,-17.73802 -8.6379,-32.74656 -8.6379,-33.35234 0,-1.19992 1.71555,-1.86074 4.8657,-1.87427 2.90159,-0.013 4.20822,-1.56066 3.69952,-4.38345 -0.37647,-2.08896 -4.32689,-11.79705 -9.1058,-22.37739 l -1.9227,-4.25678 -3.99616,0.29277 c -2.1979,0.16102 -9.29798,0.46609 -15.778,0.67793 l -11.78183,0.38518 -6.76476,22.58903 c -9.52399,31.80274 -12.42067,40.73824 -13.07523,40.3337 -0.59671,-0.36879 -9.77353,-28.14797 -16.64257,-50.37881 l -4.01382,-12.9903 h -15.73478 -15.73479 l -4.34083,10.75468 c -6.84423,16.95707 -7.02833,19.34478 -1.49146,19.34478 3.26919,0 4.72679,0.48766 4.72679,1.5814 0,0.4467 -2.72684,10.46782 -6.05965,22.26919 -10.65194,37.71833 -21.084,75.3863 -21.51643,77.69136 -0.69606,3.71031 1.27606,4.18699 16.78562,4.05721 l 11.07126,-0.0925 z"
     id="path37" />
  <path
     style="fill:#f6fdfa;stroke:none;stroke-width:0.633674;fill-opacity:1"
     d="m 219.73741,240.62044 c -1.23544,-0.82973 -1.87151,-10.19107 -1.91574,-28.19494 l -0.0357,-14.49166 5.89695,0.25793 c 7.17435,0.31377 11.73042,2.24669 15.56564,6.60371 4.40724,5.00691 5.45285,7.90776 5.4612,15.15125 0.006,5.77133 -0.14743,6.59994 -1.72691,9.28678 -0.95382,1.62255 -2.84735,3.83169 -4.20787,4.90925 -5.57981,4.41928 -16.54649,8.15076 -19.03765,6.47768 z"
     id="path38" />
  <path
     style="fill:#f6fdfa;stroke:none;stroke-width:0.633674;fill-opacity:1"
     d="m 120.52529,252.1103 c -2.54432,-0.25932 -4.34343,-1.20113 -3.84258,-2.01151 0.14872,-0.24062 1.73489,-5.98266 3.52485,-12.76008 4.02436,-15.23776 6.2424,-22.64953 6.89971,-23.05574 0.88799,-0.54882 11.40289,36.04125 10.5906,36.85351 -1.15164,1.15164 -10.32452,1.67183 -17.17258,0.97382 z"
     id="path39" />
</svg>
