<?xml version="1.0" encoding="UTF-8" standalone="no"?>
<svg
   version="1.0"
   width="2272.000000pt"
   height="619.000000pt"
   viewBox="0 0 2272.000000 619.000000"
   preserveAspectRatio="xMidYMid meet"
   id="svg5"
   sodipodi:docname="casio.svg"
   inkscape:version="1.3.2 (091e20e, 2023-11-25, custom)"
   xmlns:inkscape="http://www.inkscape.org/namespaces/inkscape"
   xmlns:sodipodi="http://sodipodi.sourceforge.net/DTD/sodipodi-0.dtd"
   xmlns="http://www.w3.org/2000/svg"
   xmlns:svg="http://www.w3.org/2000/svg">
  <defs
     id="defs5" />
  <sodipodi:namedview
     id="namedview5"
     pagecolor="#505050"
     bordercolor="#eeeeee"
     borderopacity="1"
     inkscape:showpageshadow="0"
     inkscape:pageopacity="0"
     inkscape:pagecheckerboard="0"
     inkscape:deskcolor="#505050"
     inkscape:document-units="pt"
     inkscape:zoom="0.69289173"
     inkscape:cx="1514.6667"
     inkscape:cy="413.48451"
     inkscape:window-width="2880"
     inkscape:window-height="1766"
     inkscape:window-x="-11"
     inkscape:window-y="-11"
     inkscape:window-maximized="1"
     inkscape:current-layer="svg5" />
  <g
     transform="matrix(0.14796828,0,0,-0.14796828,-543.95042,860.54481)"
     fill="#000000"
     stroke="none"
     id="g5"
     style="fill:#f6fdfa;fill-opacity:1">
    <path
       d="m 4905,4493 c -550,-22 -810,-117 -997,-365 -108,-141 -154,-273 -178,-508 -17,-163 -23,-679 -11,-911 13,-245 29,-357 70,-477 41,-119 84,-184 191,-293 83,-84 107,-102 190,-142 242,-117 523,-149 1305,-149 511,1 677,9 883,43 244,40 373,99 503,229 98,97 148,178 189,308 29,88 55,272 63,435 l 5,87 h -459 c -252,0 -459,-3 -459,-7 -1,-25 -20,-135 -29,-171 -19,-68 -71,-118 -148,-142 -101,-31 -347,-44 -733,-37 -526,10 -603,31 -655,177 -26,75 -38,286 -33,600 9,490 33,536 300,572 63,9 232,13 518,13 520,0 608,-11 683,-83 30,-29 57,-105 57,-163 0,-75 -38,-69 463,-69 h 450 l -6,153 c -9,206 -33,314 -98,447 -45,89 -65,117 -143,196 -75,75 -106,99 -176,133 -213,103 -493,132 -1250,129 -234,-1 -456,-3 -495,-5 z"
       id="path1"
       style="fill:#f6fdfa;fill-opacity:1" />
    <path
       d="m 16910,4489 c -482,-9 -699,-45 -891,-145 -170,-89 -314,-261 -380,-452 -54,-157 -79,-422 -79,-832 1,-644 51,-878 234,-1092 79,-92 148,-146 256,-197 168,-81 364,-115 763,-132 275,-12 930,-6 1137,11 383,31 602,116 767,295 135,147 189,271 230,529 27,165 26,1017 0,1184 -35,221 -86,349 -189,479 -150,189 -346,284 -678,328 -112,15 -225,19 -705,28 -77,1 -286,-1 -465,-4 z m 944,-772 c 130,-31 178,-81 201,-212 17,-95 21,-738 5,-850 -13,-88 -54,-172 -98,-198 -92,-54 -324,-72 -822,-64 -460,8 -545,23 -611,107 -58,73 -64,124 -64,560 0,424 5,477 51,556 28,50 54,68 126,89 100,29 206,33 678,30 383,-2 477,-5 534,-18 z"
       id="path2"
       style="fill:#f6fdfa;fill-opacity:1" />
    <path
       d="m 11730,4470 c -401,-19 -612,-82 -754,-225 -142,-145 -226,-381 -226,-639 0,-402 157,-654 471,-761 102,-35 248,-53 539,-65 599,-26 1058,-51 1099,-60 91,-22 134,-60 151,-135 14,-62 5,-147 -22,-198 -14,-29 -32,-45 -72,-63 -88,-40 -179,-46 -638,-42 -405,4 -426,5 -491,27 -105,34 -157,103 -157,205 v 26 h -439 c -242,0 -442,-3 -444,-7 -2,-5 -1,-62 4,-129 13,-206 60,-356 144,-458 40,-49 148,-140 205,-172 173,-99 428,-131 1090,-138 759,-8 1107,21 1284,109 134,66 295,227 352,351 81,173 95,508 33,753 -57,227 -199,376 -429,449 -158,51 -233,57 -1105,97 -302,14 -570,30 -593,36 -98,23 -126,65 -127,189 0,203 82,227 740,217 364,-6 418,-11 477,-50 42,-28 78,-99 78,-154 v -43 h 446 446 l -7,98 c -18,254 -89,419 -243,563 -84,80 -136,111 -249,148 -119,40 -261,59 -520,71 -245,11 -808,11 -1043,0 z"
       id="path3"
       style="fill:#f6fdfa;fill-opacity:1" />
    <path
       d="m 8261,4416 c -8,-20 -491,-1153 -606,-1421 -24,-55 -141,-329 -260,-610 -119,-280 -234,-550 -256,-599 -21,-49 -39,-91 -39,-95 0,-3 213,-5 472,-4 l 473,2 91,243 91,243 h 687 687 l 92,-243 92,-243 473,-2 c 259,-1 472,0 472,2 0,2 -38,92 -84,200 -46,108 -209,489 -361,846 -470,1101 -604,1415 -667,1563 l -61,142 h -644 -643 z m 916,-1106 c 106,-283 193,-521 193,-527 0,-10 -99,-13 -461,-13 -435,0 -461,1 -454,18 4,9 92,243 196,520 103,276 191,507 194,513 4,5 35,9 73,7 l 66,-3 z"
       id="path4"
       style="fill:#f6fdfa;fill-opacity:1" />
    <path
       d="M 14250,3055 V 1690 h 445 445 v 1365 1365 h -445 -445 z"
       id="path5"
       style="fill:#f6fdfa;fill-opacity:1" />
  </g>
</svg>
