<?xml version="1.0" encoding="UTF-8" standalone="no"?>
<svg
   version="1.0"
   width="1200.000000pt"
   height="630.000000pt"
   viewBox="0 0 1200.000000 630.000000"
   preserveAspectRatio="xMidYMid meet"
   id="svg5"
   sodipodi:docname="canon.svg"
   inkscape:version="1.3.2 (091e20e, 2023-11-25, custom)"
   xmlns:inkscape="http://www.inkscape.org/namespaces/inkscape"
   xmlns:sodipodi="http://sodipodi.sourceforge.net/DTD/sodipodi-0.dtd"
   xmlns="http://www.w3.org/2000/svg"
   xmlns:svg="http://www.w3.org/2000/svg">
  <defs
     id="defs5" />
  <sodipodi:namedview
     id="namedview5"
     pagecolor="#505050"
     bordercolor="#eeeeee"
     borderopacity="1"
     inkscape:showpageshadow="0"
     inkscape:pageopacity="0"
     inkscape:pagecheckerboard="0"
     inkscape:deskcolor="#505050"
     inkscape:document-units="pt"
     inkscape:zoom="1.311875"
     inkscape:cx="800"
     inkscape:cy="419.62839"
     inkscape:window-width="2880"
     inkscape:window-height="1766"
     inkscape:window-x="-11"
     inkscape:window-y="-11"
     inkscape:window-maximized="1"
     inkscape:current-layer="svg5" />
  <g
     transform="translate(0.000000,630.000000) scale(0.100000,-0.100000)"
     fill="#000000"
     stroke="none"
     id="g5">
    <path
       d="M1559 3705 c-189 -26 -415 -93 -554 -162 -146 -73 -313 -208 -404 -327 -96 -124 -165 -279 -207 -465 -8 -36 -17 -138 -21 -226 -7 -186 7 -277 61 -411 47 -116 96 -186 206 -294 191 -189 471 -320 844 -395 187 -38 276 -45 427 -34 261 18 499 74 659 154 100 50 290 188 390 282 49 47 90 88 90 93 0 4 -12 33 -26 64 l-26 56 -42 -57 c-95 -129 -261 -250 -418 -304 -168 -57 -399 -76 -562 -45 -372 72 -685 450 -721 871 -8 93 13 249 45 347 77 228 253 431 470 542 203 104 403 138 592 102 134 -26 313 -105 305 -135 -2 -9 -106 -186 -231 -395 -125 -208 -225 -380 -223 -383 3 -2 60 29 128 70 68 41 271 161 451 267 l327 193 -32 45 c-53 76 -206 223 -305 292 -159 112 -356 199 -547 241 -84 18 -138 22 -340 25 -165 2 -270 -1 -336 -11z"
       id="path1" />
    <path
       d="M4250 3306 c-69 -25 -299 -111 -600 -224 -102 -38 -192 -72 -200 -74 -31 -10 105 -18 465 -25 l370 -8 73 -248 c40 -137 71 -251 69 -253 -3 -3 -33 11 -68 30 -76 42 -215 88 -319 107 -109 19 -319 17 -400 -4 -191 -50 -366 -190 -451 -361 -43 -88 -44 -91 -44 -190 0 -80 5 -116 24 -171 79 -233 232 -388 443 -449 233 -68 586 -12 798 126 36 24 100 76 142 117 51 48 79 69 82 60 3 -8 25 -79 50 -159 l45 -145 327 3 326 3 -6 22 c-4 12 -29 110 -57 217 -28 107 -88 339 -134 515 -46 176 -107 412 -136 525 -67 263 -97 330 -188 421 -54 54 -89 78 -162 114 -120 57 -192 75 -299 75 -64 0 -101 -6 -150 -24z m94 -960 c72 -35 137 -101 173 -174 24 -50 28 -69 28 -147 0 -82 -3 -97 -32 -156 -99 -200 -334 -265 -519 -143 -63 42 -106 97 -135 174 -27 71 -23 200 9 272 39 87 124 161 225 194 68 22 183 13 251 -20z"
       id="path2" />
    <path
       d="M5948 3318 c-124 -16 -327 -97 -583 -234 l-168 -89 202 -3 c110 -1 202 -3 203 -5 1 -1 4 -344 7 -762 l6 -760 347 -3 348 -2 2 709 c3 704 3 710 24 738 69 92 237 90 284 -4 12 -22 16 -156 22 -673 5 -355 11 -676 14 -715 l5 -70 342 2 342 2 -4 778 c-3 722 -5 783 -23 853 -24 99 -75 175 -131 200 -62 27 -160 43 -223 37 -53 -5 -154 -47 -519 -216 -71 -32 -133 -57 -137 -55 -5 3 -8 13 -8 22 0 26 -58 133 -88 165 -66 70 -157 99 -264 85z"
       id="path3" />
    <path
       d="M8350 3306 c-367 -77 -651 -338 -752 -691 -20 -70 -23 -101 -22 -255 0 -201 15 -275 83 -410 135 -270 339 -437 631 -518 82 -22 115 -26 235 -26 120 0 154 4 235 26 291 80 496 249 631 518 68 134 82 208 83 410 0 201 -14 272 -84 416 -120 249 -355 442 -625 515 -102 27 -319 35 -415 15z m155 -178 l62 -63 37 -145 c41 -160 162 -601 253 -920 46 -163 58 -220 58 -277 0 -69 -2 -74 -35 -109 -105 -110 -252 -101 -335 20 -43 63 -53 91 -120 341 -30 110 -79 290 -110 400 -93 332 -145 551 -145 607 1 128 83 206 219 208 54 0 55 -1 116 -62z"
       id="path4" />
    <path
       d="M10170 3300 c-115 -29 -268 -93 -455 -189 -93 -48 -186 -98 -205 -109 l-35 -22 206 0 206 0 8 -757 c4 -417 8 -759 9 -760 0 -1 155 -5 343 -9 l343 -7 2 699 c3 660 4 701 22 737 28 56 69 81 141 85 71 4 120 -17 147 -63 16 -28 18 -89 28 -645 5 -338 10 -661 10 -717 l0 -103 346 0 346 0 -5 793 c-4 717 -6 797 -22 847 -27 84 -61 146 -98 174 -43 33 -134 56 -219 56 -77 0 -119 -14 -328 -110 -389 -178 -370 -171 -370 -146 0 34 -74 158 -117 196 -79 70 -166 84 -303 50z"
       id="path5" />
  </g>
  <path
     style="fill:#f6fdfa;stroke:none;stroke-width:0.762268;fill-opacity:1"
     d="m 230.96713,654.29382 c -10.3098,-0.5347 -14.89322,-1.16795 -30.10958,-4.15995 C 143.09299,638.77561 102.50176,618.10521 75.635196,586.36649 66.274238,575.30796 61.389655,566.71714 55.98224,551.80163 c -5.099805,-14.06702 -6.740645,-28.84165 -5.630133,-50.69545 0.937906,-18.45709 1.963015,-26.06988 5.006028,-37.17634 6.994998,-25.53052 17.982079,-45.71877 33.789057,-62.08584 24.174378,-25.03094 49.135758,-38.8861 88.859908,-49.32292 22.65664,-5.95263 31.03624,-6.98918 59.82044,-7.39972 28.45194,-0.4058 47.10856,0.49278 58.52176,2.81864 28.18092,5.74291 60.35197,20.86795 82.8789,38.96505 11.72468,9.41907 33.45801,32.29179 35.59912,37.46545 0.12511,0.3023 -21.0398,13.11718 -47.03313,28.47752 -68.41304,40.42759 -70.56764,41.67884 -71.00915,41.23732 -0.47799,-0.47798 4.98722,-9.96218 30.60633,-53.11345 28.44623,-47.91309 28.77916,-48.50549 28.23106,-50.23238 -0.94193,-2.96778 -13.49029,-9.28324 -27.11173,-13.64506 -29.47309,-9.4378 -58.94714,-6.49145 -90.30203,9.02696 -22.65433,11.21226 -40.21635,27.25031 -53.49914,48.85669 -11.42544,18.58514 -16.67065,36.67838 -17.53768,60.49594 -0.34423,9.45579 -0.1437,13.01659 1.15902,20.58122 9.3436,54.25638 49.4061,98.20656 97.31944,106.76335 9.18142,1.6397 31.25998,1.85299 42.30586,0.40871 10.08081,-1.31811 23.44411,-4.35529 31.19304,-7.08949 21.58834,-7.61741 42.18644,-22.82128 56.27176,-41.53531 2.32201,-3.08507 4.315,-5.51457 4.42888,-5.39887 0.11387,0.1157 1.61523,3.41238 3.33634,7.32595 l 3.1293,7.11559 -1.7285,2.04689 c -3.45738,4.09425 -16.39755,15.96471 -23.98884,22.00577 -24.86852,19.79012 -42.36307,29.5586 -64.41131,35.96553 -26.55187,7.71562 -60.28559,11.92362 -85.21971,10.63044 z"
     id="path6"
     transform="scale(0.75)" />
  <path
     style="fill:#f6fdfa;stroke:none;stroke-width:0.762268;fill-opacity:1"
     d="m 498.113,651.32813 c -36.19841,-4.13677 -62.59141,-26.36815 -75.52904,-63.6197 -1.93057,-5.55874 -2.14501,-7.27379 -2.42425,-19.38938 -0.34572,-15.00024 -0.14267,-16.09269 4.86162,-26.15646 4.56221,-9.17474 8.69374,-15.04257 15.81205,-22.45716 15.55196,-16.19929 35.15857,-26.40352 54.53085,-28.38052 10.00726,-1.02128 25.10906,-1.03149 35.28393,-0.0239 14.77503,1.46318 34.68143,7.44424 49.48351,14.86776 7.25515,3.6386 10.62583,4.87303 10.62583,3.89149 0,-2.06751 -18.52986,-65.7666 -19.37802,-66.61476 -0.29294,-0.29294 -13.46102,-0.78363 -29.26239,-1.09041 -39.1119,-0.75935 -76.30058,-2.05376 -78.88649,-2.74576 -1.77952,-0.4762 6.81614,-3.9151 51.76494,-20.70974 29.64435,-11.0763 55.64508,-20.59819 57.77941,-21.15977 5.23464,-1.37733 22.19519,-1.33826 29.41657,0.0677 11.23298,2.18708 28.78109,9.96777 37.832,16.77439 5.77001,4.33927 13.30852,12.31733 16.80826,17.78831 6.69344,10.46353 8.40573,15.95174 25.3957,81.39815 28.13985,108.39647 32.90421,126.67618 33.92379,130.15722 l 1.06051,3.62077 -11.96463,10e-4 c -6.58055,5.5e-4 -26.02847,0.22412 -43.21761,0.49683 l -31.25298,0.49582 -2.14068,-7.16667 c -7.11035,-23.80446 -10.51744,-33.46469 -11.79872,-33.45336 -0.71828,0.006 -5.76522,3.98746 -11.21544,8.84688 -5.45021,4.85943 -12.31062,10.54602 -15.24535,12.63685 -13.87288,9.88368 -34.00159,17.36071 -55.95863,20.78647 -9.69106,1.512 -28.00742,2.08606 -36.30474,1.13785 z m 70.38031,-33.94226 c 15.88606,-3.22945 29.67347,-15.37299 35.7335,-31.47299 1.78864,-4.75199 1.88604,-5.77174 1.64796,-17.25395 l -0.25305,-12.20348 -2.79599,-5.717 c -5.52508,-11.29718 -17.18739,-22.16022 -27.25029,-25.38273 -10.45573,-3.3483 -22.98124,-3.54113 -31.90743,-0.49122 -9.63555,3.29229 -21.19815,12.75562 -26.37182,21.58383 -4.99019,8.51511 -6.95884,27.13636 -3.95912,37.44876 5.10732,17.55786 19.24378,30.20675 37.83487,33.85356 5.33116,1.04575 10.96659,0.92707 17.32137,-0.36478 z"
     id="path7"
     transform="scale(0.75)" />
  <path
     style="fill:#f6fdfa;stroke:none;stroke-width:0.762268;fill-opacity:1"
     d="m 888.46765,646.09406 c -0.60036,-0.97139 -1.774,-51.5664 -2.73357,-117.84251 -1.10019,-75.98814 -1.13997,-76.41308 -7.5925,-81.08726 -4.23817,-3.07012 -8.86073,-4.1649 -15.82286,-3.7474 -9.20002,0.55171 -17.26476,5.58789 -19.35649,12.08751 -0.57927,1.8 -1.07225,31.80717 -1.57708,95.99631 -0.40391,51.35779 -0.79077,93.41073 -0.85967,93.45097 -0.0689,0.0402 -20.58573,-0.0896 -45.59294,-0.28858 l -45.46764,-0.36173 -0.4498,-13.05111 c -0.24739,-7.17812 -0.63074,-49.06827 -0.8519,-93.08923 -0.22116,-44.02096 -0.60945,-83.89709 -0.86286,-88.61363 l -0.46074,-8.57551 -16.10679,-0.0869 c -8.85874,-0.0478 -20.4558,-0.30506 -25.77125,-0.5717 l -9.66444,-0.4848 19.20015,-10.08005 c 35.27212,-18.51781 59.32053,-28.42205 76.30495,-31.42588 16.59327,-2.93464 31.70127,2.66358 40.08914,14.85492 3.25329,4.7285 8.16815,14.86335 8.76565,18.0755 0.30591,1.64455 0.97284,2.8585 1.57044,2.8585 1.78732,0 11.34395,-4.05447 34.83694,-14.77983 42.25836,-19.2924 47.01319,-21.04675 57.04296,-21.04675 7.41569,0 15.97865,1.4941 22.70602,3.96183 8.27839,3.03669 15.44256,12.73812 19.13165,25.90732 2.54103,9.07086 2.93433,22.92106 3.50807,123.53723 l 0.54224,95.0929 h -45.05058 c -26.07151,0 -45.23027,-0.29073 -45.4771,-0.69012 z"
     id="path8"
     transform="scale(0.75)" />
  <path
     style="fill:#f6fdfa;stroke:none;stroke-width:0.762268;fill-opacity:1"
     d="m 1119.3902,651.64915 c -15.2553,-2.18994 -37.2387,-10.30985 -50.5959,-18.68836 -13.3768,-8.39078 -26.5757,-20.92241 -35.4188,-33.62811 -10.0241,-14.40274 -17.992,-31.02775 -20.7323,-43.25836 -1.6751,-7.47628 -2.5123,-48.31793 -1.1507,-56.13676 2.3974,-13.76681 11.7016,-34.98286 21.1791,-48.29392 6.6246,-9.30428 20.6779,-23.34803 29.9296,-29.90944 14.6907,-10.41868 36.0077,-19.46793 52.7183,-22.37932 8.8276,-1.53798 35.2706,-1.10564 46.0655,0.75316 18.2132,3.1362 40.0618,13.75426 56.7437,27.57643 19.6503,16.28175 35.893,41.07594 41.6055,63.50985 4.1904,16.45623 4.1578,51.65292 -0.063,68.29229 -2.4345,9.59712 -9.9124,25.17842 -17.7515,36.9879 -7.5485,11.37179 -22.4821,26.55443 -32.9308,33.47998 -13.2196,8.76219 -28.7783,15.62503 -44.4289,19.59734 -7.1138,1.80556 -9.399,2.00434 -25.3508,2.20503 -9.6426,0.12131 -18.5612,0.0729 -19.8189,-0.10771 z m 54.8639,-19.28164 c 2.7687,-1.36302 6.8783,-4.27888 9.1325,-6.47969 5.1843,-5.06145 6.1017,-8.06743 5.4871,-17.97929 -0.5086,-8.20241 -2.5072,-16.74391 -10.7904,-46.1172 -10.6705,-37.83867 -23.8564,-85.91739 -29.638,-108.06716 -3.3367,-12.7832 -6.3534,-22.79873 -7.2323,-24.01144 -2.2581,-3.11585 -10.743,-11.19725 -14.1159,-13.44468 -6.7693,-4.51042 -23.1491,-1.2256 -30.489,6.11427 -7.0201,7.0201 -8.8839,17.33807 -5.8364,32.31039 2.1612,10.61783 8.7794,37.0422 14.1277,56.40781 2.3737,8.59457 8.9265,32.4345 14.5618,52.97761 5.6353,20.54312 10.9686,39.58076 11.8518,42.30586 3.2972,10.17455 9.7086,19.98396 15.9802,24.4497 7.3568,5.23853 18.1843,5.85451 26.9609,1.53382 z"
     id="path9"
     transform="scale(0.75)" />
  <path
     style="fill:#f6fdfa;stroke:none;stroke-width:0.762268;fill-opacity:1"
     d="m 1458.9803,633.25393 c -4e-4,-45.54806 -2.6532,-168.80663 -3.7819,-175.72446 -0.8808,-5.39824 -2.8484,-8.2872 -7.5112,-11.0282 -3.3122,-1.94708 -4.1785,-2.09917 -11.9559,-2.09917 -7.2395,0 -8.8773,0.2425 -11.9892,1.77509 -4.1165,2.02738 -7.9087,6.40899 -9.5627,11.049 -1.5013,4.21156 -2.3392,49.4228 -2.4083,129.94413 l -0.051,59.68105 -18.485,-0.45354 c -55.8356,-1.36997 -71.6629,-1.84666 -71.9844,-2.16811 -0.3277,-0.32775 -0.8194,-35.35732 -2.1924,-156.1878 l -0.5175,-45.54549 h -26.7405 c -16.7563,0 -26.4702,-0.26844 -26.0164,-0.71894 1.2257,-1.21691 11.315,-6.63911 31.2149,-16.7756 64.1706,-32.6869 89.0772,-34.8764 106.09,-9.32623 3.9883,5.98959 8.6313,15.38647 8.6313,17.4686 0,3.21834 0.2111,3.13988 38.8756,-14.44338 31.9972,-14.55117 39.3878,-17.56885 46.3698,-18.93331 9.1593,-1.78995 25.4669,0.4314 33.59,4.5755 6.3428,3.23585 13.4585,14.30644 16.4783,25.63689 1.8038,6.76808 2.4801,36.0902 3.062,132.7642 l 0.5105,84.80229 h -45.8128 -45.8128 z"
     id="path10"
     transform="scale(0.75)" />
</svg>
