<?xml version="1.0" encoding="UTF-8" standalone="no"?>
<svg
   version="1.0"
   width="3840.000000pt"
   height="2160.000000pt"
   viewBox="0 0 3840.000000 2160.000000"
   preserveAspectRatio="xMidYMid meet"
   id="svg90"
   sodipodi:docname="celcom.svg"
   inkscape:version="1.3.2 (091e20e, 2023-11-25, custom)"
   xmlns:inkscape="http://www.inkscape.org/namespaces/inkscape"
   xmlns:sodipodi="http://sodipodi.sourceforge.net/DTD/sodipodi-0.dtd"
   xmlns="http://www.w3.org/2000/svg"
   xmlns:svg="http://www.w3.org/2000/svg">
  <defs
     id="defs90" />
  <sodipodi:namedview
     id="namedview90"
     pagecolor="#505050"
     bordercolor="#eeeeee"
     borderopacity="1"
     inkscape:showpageshadow="0"
     inkscape:pageopacity="0"
     inkscape:pagecheckerboard="0"
     inkscape:deskcolor="#505050"
     inkscape:document-units="pt"
     inkscape:zoom="0.40996094"
     inkscape:cx="2560"
     inkscape:cy="1440.3811"
     inkscape:window-width="2880"
     inkscape:window-height="1766"
     inkscape:window-x="-11"
     inkscape:window-y="-11"
     inkscape:window-maximized="1"
     inkscape:current-layer="svg90" />
  <g
     transform="matrix(0.1,0,0,-0.1,9.147213,1814.2354)"
     fill="#000000"
     stroke="none"
     id="g90"
     style="fill:#f6fdfa;fill-opacity:1">
    <path
       d="m 34120,16835 c 0,-668 4,-1215 9,-1215 4,0 7,-20 6,-45 -1,-25 1,-47 5,-50 4,-2 7,3 7,13 0,9 6,32 15,51 11,24 17,29 21,17 3,-8 2,-18 -4,-22 -7,-4 -6,-10 1,-19 7,-8 7,-15 1,-19 -5,-3 -11,0 -14,6 -3,7 -4,3 -4,-9 1,-21 2,-21 19,-6 12,11 15,20 8,28 -5,6 -7,15 -3,18 3,4 12,-1 19,-11 11,-14 9,-21 -9,-42 l -22,-25 27,24 c 24,21 26,25 13,45 -10,14 -11,26 -5,36 8,12 10,11 10,-6 0,-12 7,-27 15,-34 14,-12 13,-16 -7,-39 l -23,-26 27,24 c 15,13 26,28 25,34 -1,6 10,11 26,12 15,0 26,-4 25,-10 -2,-5 -7,-9 -13,-7 -5,2 -7,0 -2,-4 4,-4 0,-17 -10,-28 -9,-12 2,-2 25,20 49,50 66,45 20,-5 -33,-35 -33,-36 -2,-8 17,15 34,24 38,20 4,-5 6,-1 4,7 -2,9 5,14 17,14 12,0 19,-6 17,-14 -3,-11 0,-11 12,-1 9,7 15,16 14,19 0,4 0,16 1,27 1,16 3,17 10,6 5,-8 7,-19 5,-26 -3,-6 2,-18 10,-25 9,-7 13,-17 9,-23 -3,-6 -1,-7 6,-3 9,6 9,11 1,21 -7,9 -6,16 7,26 15,12 16,12 10,-3 -3,-10 -2,-20 4,-24 6,-4 5,-12 -3,-22 -11,-15 -11,-15 3,-5 9,7 20,9 25,5 4,-4 2,1 -6,11 -7,10 -15,33 -16,50 l -3,32 13,-25 c 8,-14 12,-28 10,-31 -2,-4 3,-12 11,-19 12,-10 13,-16 3,-29 -12,-14 -11,-14 4,-2 10,7 16,17 13,21 -3,4 2,13 10,20 8,7 15,18 15,26 0,7 5,16 11,20 8,4 9,-1 5,-17 l -7,-24 14,23 c 7,12 16,20 19,16 9,-9 -22,-55 -32,-49 -5,3 -12,1 -15,-5 -4,-6 -1,-9 7,-8 7,2 12,-3 10,-10 -1,-8 2,-11 8,-7 6,3 8,9 6,13 -5,9 23,48 32,45 4,-2 7,1 7,6 0,5 3,13 7,17 4,4 7,-10 6,-29 -1,-28 -4,-34 -14,-26 -8,7 -14,7 -19,-1 -4,-6 -1,-9 7,-8 7,2 12,-3 10,-11 -3,-12 0,-12 13,-1 8,7 15,18 14,24 -4,30 2,57 11,51 5,-3 7,-13 3,-23 -3,-11 1,-9 11,6 10,12 22,19 28,16 6,-4 5,-9 -3,-15 -8,-4 -14,-14 -14,-21 -1,-7 -7,-11 -15,-10 -8,2 -12,0 -7,-4 4,-4 -1,-17 -10,-28 -10,-12 -3,-8 14,8 18,16 30,33 27,38 -11,18 9,7 26,-14 14,-18 16,-26 7,-38 -11,-13 -10,-13 6,-1 15,12 16,16 4,30 -25,29 -27,39 -10,52 14,12 15,11 9,-7 -4,-14 0,-26 14,-39 16,-15 18,-21 7,-34 -11,-14 -10,-14 6,-2 17,13 17,15 -3,36 -31,33 -24,42 10,10 24,-23 28,-31 17,-44 -7,-10 -3,-8 11,3 22,19 30,32 13,22 -4,-3 -16,3 -25,12 -14,17 -14,20 0,38 15,18 15,18 9,-3 -3,-12 -1,-24 4,-28 7,-3 8,0 5,9 -3,9 -4,16 0,16 8,0 41,-63 38,-73 -1,-5 2,-6 8,-2 7,4 5,14 -5,28 -17,24 -20,41 -5,32 6,-4 7,1 3,12 -6,16 -5,16 10,4 12,-10 14,-17 7,-26 -7,-9 -6,-16 5,-25 8,-7 12,-17 8,-23 -4,-6 -1,-7 6,-3 9,6 9,12 -3,25 -15,16 -14,19 4,36 20,19 29,8 9,-12 -8,-8 -7,-13 2,-18 7,-5 10,-4 5,3 -3,6 -1,14 5,17 5,4 8,13 5,21 -3,7 -1,16 3,19 13,7 20,-32 9,-43 -7,-7 -6,-16 1,-29 11,-16 11,-15 5,6 -4,16 -3,21 5,17 6,-4 10,-4 9,1 -2,4 2,8 7,8 6,0 9,-4 7,-10 -1,-5 6,0 17,13 11,12 22,18 25,14 6,-11 -38,-55 -46,-46 -4,3 -5,-1 -4,-10 1,-8 6,-19 11,-23 4,-4 5,-3 2,3 -8,14 17,37 27,26 4,-4 6,0 4,8 -1,8 3,14 10,12 6,-1 11,4 10,10 -2,7 2,12 9,11 7,-2 10,4 7,15 -5,15 -4,14 10,-2 8,-10 13,-22 11,-26 -3,-4 2,-13 10,-20 8,-7 12,-17 8,-23 -4,-6 -1,-7 6,-3 9,6 9,12 -3,25 -15,16 -14,19 4,36 20,19 29,8 9,-12 -8,-8 -7,-13 3,-18 7,-5 10,-5 6,0 -4,4 -3,14 2,21 6,6 10,16 9,20 -4,25 4,36 10,14 4,-14 4,-30 -1,-37 -6,-7 -5,-19 2,-30 9,-16 10,-15 4,6 -4,16 -3,21 5,17 6,-4 10,-4 9,1 -2,4 2,8 7,8 6,0 9,-4 7,-10 -1,-5 6,0 17,13 11,12 22,18 25,14 6,-11 -38,-55 -46,-46 -4,3 -5,-1 -4,-10 1,-8 6,-19 11,-23 4,-4 5,-3 2,3 -8,14 17,37 27,26 4,-4 6,0 4,8 -1,8 3,14 10,12 6,-1 11,3 10,10 -2,7 5,12 15,13 9,0 16,-4 15,-10 -2,-5 -6,-9 -11,-7 -4,1 -6,-4 -5,-10 2,-7 -3,-12 -10,-10 -8,1 -11,-2 -7,-9 9,-13 65,38 65,60 0,15 14,7 16,-10 1,-5 3,-11 4,-14 7,-14 5,-31 -4,-45 -8,-13 -8,-13 4,-2 8,7 16,26 16,42 3,55 4,61 12,56 5,-3 8,-21 7,-40 -1,-21 2,-34 9,-33 6,1 9,-5 8,-13 -2,-8 0,-12 4,-8 4,4 14,2 23,-4 9,-7 3,2 -12,18 -26,29 -27,32 -11,45 16,12 17,12 12,-2 -4,-11 3,-25 20,-40 26,-23 26,-23 8,-1 -11,12 -21,35 -22,50 -3,25 -2,26 11,8 8,-10 12,-22 10,-26 -3,-4 4,-15 15,-25 16,-15 18,-21 7,-34 -11,-14 -10,-14 6,-2 17,13 17,15 -3,36 -19,21 -20,23 -3,36 15,12 16,12 11,-3 -4,-9 1,-23 12,-33 11,-10 17,-22 13,-28 -4,-6 -1,-7 6,-3 9,6 8,13 -5,27 -10,11 -19,32 -20,47 -3,25 -2,26 11,8 8,-10 12,-22 10,-26 -2,-4 8,-18 23,-31 14,-13 21,-17 15,-9 -9,12 -7,20 7,37 9,12 20,19 24,16 3,-4 0,-14 -8,-22 -11,-12 -12,-21 -5,-31 8,-12 9,-11 7,5 -2,12 2,19 10,17 6,-1 11,3 10,10 -2,7 5,12 15,13 9,0 16,-4 15,-10 -2,-5 -6,-9 -11,-7 -4,1 -6,-4 -5,-10 2,-7 -2,-12 -8,-11 -6,1 -11,-5 -11,-13 0,-18 42,18 67,59 10,16 20,24 24,19 3,-5 -11,-29 -30,-53 l -36,-44 34,35 c 18,19 38,36 43,38 6,1 10,6 10,11 0,5 4,13 9,18 4,4 6,-9 3,-30 -3,-20 -1,-40 4,-43 5,-3 7,-9 4,-14 -3,-5 -1,-11 4,-14 10,-6 10,11 0,29 -3,6 -4,16 -3,23 1,6 2,21 3,33 0,11 5,18 10,15 5,-3 7,-19 6,-36 -1,-17 1,-33 6,-36 5,-3 6,-10 3,-16 -4,-7 -2,-8 5,-4 7,5 9,12 3,19 -17,23 -8,42 21,42 15,0 26,-4 25,-10 -2,-5 -7,-9 -13,-7 -5,2 -1,-6 9,-17 20,-22 35,-29 18,-8 -7,8 -5,18 8,34 9,12 20,19 24,16 3,-4 0,-14 -8,-22 -11,-12 -12,-21 -5,-31 8,-12 9,-11 7,5 -2,12 2,19 10,17 6,-1 11,3 10,10 -2,7 5,12 15,13 9,0 16,-4 15,-10 -2,-5 -6,-9 -11,-7 -4,1 -6,-4 -5,-10 2,-7 -2,-12 -8,-11 -6,1 -11,-5 -11,-14 0,-10 14,-2 38,24 21,23 40,38 44,35 3,-3 -9,-22 -27,-41 -18,-20 -24,-28 -12,-18 11,9 24,14 28,10 4,-5 6,-1 4,7 -1,8 3,14 10,12 6,-1 11,3 10,10 -2,7 5,12 15,13 9,0 16,-4 15,-10 -2,-5 -5,-9 -8,-8 -4,1 -6,-9 -6,-22 0,-14 2,-22 6,-19 3,3 5,9 5,13 0,13 42,60 49,54 3,-4 -2,-15 -11,-25 -16,-18 -30,-58 -15,-43 4,4 7,10 7,14 0,4 15,24 33,46 36,44 45,34 10,-11 -20,-25 -36,-66 -20,-49 4,4 7,10 7,14 0,13 42,60 49,54 3,-4 -3,-17 -15,-29 -13,-14 -17,-24 -10,-29 7,-3 10,-3 9,2 -2,4 2,9 7,11 6,1 10,-2 10,-7 0,-5 3,-12 7,-16 8,-8 5,16 -4,30 -3,6 5,24 18,40 26,33 33,23 9,-12 -10,-14 -12,-24 -5,-28 6,-4 10,-3 9,2 -4,15 13,43 23,37 5,-3 5,-10 0,-17 -22,-29 0,-58 25,-33 4,4 2,6 -6,4 -7,-1 -16,3 -19,11 -3,9 0,11 7,7 7,-4 10,-2 9,5 -2,7 2,13 7,14 6,0 16,4 24,9 11,7 13,5 8,-6 -3,-9 3,-24 14,-34 18,-16 18,-18 2,-38 l -18,-21 23,19 c 21,18 21,20 5,38 -9,10 -18,31 -19,46 -3,25 -2,26 11,8 8,-10 12,-22 10,-26 -3,-4 4,-15 15,-25 11,-10 17,-22 13,-28 -4,-6 -1,-7 6,-2 9,5 7,13 -8,29 -12,12 -18,25 -15,29 8,8 50,-44 46,-56 -1,-5 2,-6 8,-2 7,4 1,18 -14,36 -23,27 -26,67 -5,54 4,-3 6,-11 3,-18 -2,-7 7,-24 20,-36 14,-13 23,-28 19,-34 -4,-6 -1,-7 6,-2 9,5 7,13 -9,30 -19,21 -20,23 -3,36 15,12 16,12 11,-3 -4,-9 1,-23 12,-33 11,-10 17,-22 13,-28 -4,-6 -1,-7 6,-3 9,6 8,13 -5,27 -10,11 -19,32 -20,47 -3,25 -2,26 11,8 8,-10 12,-22 10,-26 -2,-4 8,-18 23,-31 14,-13 21,-17 15,-9 -9,12 -7,20 7,37 9,12 20,19 24,16 3,-4 0,-14 -8,-22 -11,-12 -12,-21 -5,-31 8,-12 9,-11 7,5 -2,12 2,19 9,18 7,-2 12,2 10,9 -1,7 6,12 16,13 9,0 16,-4 15,-10 -2,-5 -6,-9 -10,-8 -5,2 -7,-3 -5,-10 1,-6 -3,-11 -9,-10 -6,1 -11,-5 -11,-13 0,-18 42,18 67,59 10,16 20,24 24,19 3,-5 -11,-29 -30,-53 l -36,-44 35,37 c 40,40 60,39 25,-2 -13,-14 -6,-9 14,11 20,20 39,34 43,31 3,-3 -9,-20 -26,-38 -22,-23 -27,-34 -18,-39 7,-5 10,-4 6,2 -8,13 17,36 27,25 4,-4 6,0 4,8 -2,8 3,14 9,13 7,-2 12,2 10,9 -1,7 6,12 16,13 9,0 16,-4 15,-10 -2,-5 -6,-9 -10,-8 -5,2 -7,-3 -5,-10 1,-6 -4,-11 -11,-9 -8,1 -11,-2 -6,-10 5,-8 21,4 51,37 52,60 58,47 7,-16 l -36,-44 35,37 c 40,40 60,39 25,-2 -13,-14 -6,-9 14,11 46,46 60,38 16,-10 -33,-36 -32,-36 8,2 30,28 41,45 38,60 -4,21 -4,21 7,-1 11,-20 8,-27 -22,-60 -31,-33 -31,-34 -3,-9 29,26 31,27 47,9 13,-15 14,-21 4,-32 -10,-12 -9,-12 6,-1 12,10 14,17 7,26 -5,6 -6,16 -2,20 4,5 2,5 -5,1 -19,-11 -22,7 -7,39 l 14,30 -5,-30 -4,-30 13,28 c 6,15 15,25 19,21 3,-4 2,-14 -3,-24 -7,-14 -7,-40 0,-60 1,-3 2,-9 0,-15 -1,-5 8,-1 19,9 11,10 18,23 15,27 -6,11 -15,12 -11,2 1,-5 -2,-10 -7,-13 -5,-3 -10,5 -12,17 -4,24 14,26 40,4 15,-13 15,-16 -1,-35 l -18,-21 22,19 c 15,13 20,23 14,30 -6,7 -6,17 -1,26 9,14 11,13 14,-9 0,-5 4,-13 9,-17 4,-4 0,-15 -9,-25 -12,-13 -12,-19 -3,-25 7,-4 10,-3 6,3 -9,14 17,35 29,25 5,-4 2,2 -7,13 -13,16 -14,24 -4,42 6,13 15,20 18,17 3,-4 2,-15 -3,-24 -7,-13 -5,-21 5,-30 13,-10 13,-16 3,-29 -12,-14 -11,-14 5,-2 15,12 16,16 3,30 -9,10 -12,22 -7,30 6,9 11,10 15,2 4,-6 4,-11 0,-11 -4,0 0,-8 9,-18 13,-15 14,-21 4,-32 -10,-12 -9,-12 6,-1 15,12 16,16 4,30 -11,13 -11,21 -2,38 6,13 15,20 18,17 3,-4 2,-15 -3,-24 -7,-13 -5,-22 8,-31 15,-12 15,-12 5,1 -8,10 -9,21 -3,30 6,8 10,13 11,10 0,-3 3,-14 5,-25 3,-11 6,-25 6,-32 1,-7 5,-10 10,-7 4,3 4,14 -2,24 -10,19 -5,27 18,26 6,-1 11,-5 10,-11 -2,-5 -7,-9 -13,-7 -5,2 -4,-2 2,-9 10,-10 9,-17 -5,-33 -17,-21 -17,-21 5,-2 12,10 21,21 20,25 -3,11 30,51 36,44 4,-3 0,-15 -10,-25 -9,-10 -13,-18 -8,-18 4,0 1,-8 -6,-17 -13,-16 -12,-17 3,-4 10,7 16,16 14,20 -2,3 9,22 25,41 33,39 40,27 8,-14 -11,-14 -17,-26 -14,-26 4,0 1,-8 -6,-17 -13,-16 -12,-17 3,-5 10,8 16,17 15,20 -3,12 29,52 36,45 4,-3 0,-15 -10,-25 -9,-10 -13,-18 -8,-18 4,0 1,-8 -6,-17 -13,-16 -12,-17 3,-4 10,7 16,17 13,21 -2,4 4,15 14,24 16,15 19,15 31,1 7,-8 9,-15 4,-15 -4,0 -3,-5 4,-12 9,-9 8,-16 -6,-32 -17,-21 -17,-21 5,-2 18,15 20,22 12,33 -6,7 -8,13 -4,13 4,0 3,6 -2,13 -5,6 -6,23 -2,37 4,14 8,18 9,10 3,-18 6,-32 10,-42 1,-5 4,-12 5,-18 1,-5 4,-12 5,-15 1,-3 3,-9 4,-14 0,-5 4,-12 8,-16 3,-4 5,1 3,12 -2,10 -4,18 -5,18 -10,0 -5,37 6,46 13,10 14,8 10,-14 -2,-15 0,-29 5,-33 5,-3 6,-10 3,-16 -4,-7 -2,-8 5,-4 6,4 8,13 4,19 -4,6 -8,30 -9,52 -3,39 -2,39 11,15 7,-14 11,-28 8,-33 -2,-4 -1,-6 4,-5 4,2 8,-1 8,-7 0,-5 -4,-9 -9,-7 -5,2 -4,-3 2,-11 7,-8 10,-17 7,-20 -3,-4 -2,-4 3,-1 4,3 8,10 8,15 1,5 2,10 4,12 7,9 7,43 -1,53 -5,6 -7,18 -3,27 3,8 0,18 -6,22 -6,4 -11,1 -9,-6 1,-8 1,-21 0,-29 -1,-13 -3,-13 -10,-1 -5,8 -7,21 -4,30 4,14 3,14 -6,1 -9,-13 -11,-13 -11,0 0,13 -1,13 -10,0 -9,-13 -10,-13 -10,0 0,13 -1,13 -10,0 -9,-13 -10,-13 -10,0 0,13 -1,13 -10,0 -9,-13 -10,-13 -10,0 0,13 -1,13 -10,0 -8,-13 -10,-13 -10,-1 0,11 -4,9 -15,-5 -13,-16 -14,-16 -9,-1 4,10 1,17 -6,17 -6,0 -9,-4 -5,-9 3,-5 0,-13 -6,-17 -7,-4 -10,-3 -6,2 3,5 -54,9 -138,9 -84,0 -141,-4 -138,-9 4,-5 1,-6 -6,-2 -6,4 -9,12 -6,17 4,5 1,9 -5,9 -7,0 -10,-6 -7,-13 3,-8 -1,-14 -8,-14 -7,0 -11,6 -8,14 3,7 0,13 -7,13 -6,0 -9,-4 -5,-9 3,-5 0,-13 -6,-17 -7,-4 -9,-3 -6,2 3,5 -14,10 -38,10 -27,0 -41,-4 -37,-11 3,-5 -3,-3 -13,5 -17,13 -18,13 -10,0 8,-13 7,-13 -10,0 -10,8 -16,10 -12,4 3,-6 0,-11 -8,-11 -8,0 -12,3 -10,7 2,4 -2,7 -10,7 -8,0 -11,-5 -8,-11 4,-6 0,-5 -8,1 -12,10 -18,10 -29,0 -7,-6 -10,-7 -7,-1 3,6 0,11 -8,11 -8,0 -11,-5 -8,-10 4,-6 1,-7 -8,-1 -18,11 -40,14 -35,5 3,-4 -10,-7 -28,-7 -26,0 -32,4 -29,17 3,9 -1,20 -7,24 -9,5 -10,1 -5,-16 5,-20 4,-21 -5,-9 -10,13 -11,12 -6,-5 6,-20 6,-20 -9,-1 -11,14 -15,16 -15,5 0,-12 -2,-12 -10,1 -9,13 -10,13 -10,0 0,-13 -1,-13 -10,0 -9,13 -10,13 -10,0 0,-13 -1,-13 -10,0 -9,13 -10,13 -10,0 0,-13 -1,-13 -10,0 -9,13 -10,13 -10,0 0,-13 -1,-13 -10,0 -9,13 -10,13 -10,0 0,-13 -1,-13 -10,0 -9,13 -10,13 -10,0 0,-12 -2,-13 -9,-1 -7,11 -9,11 -14,0 -4,-11 -6,-11 -6,0 -1,11 -5,10 -16,-5 -13,-16 -14,-16 -9,-1 4,10 1,17 -6,17 -6,0 -9,-4 -5,-9 3,-5 0,-13 -6,-17 -7,-4 -10,-3 -6,2 3,5 -70,9 -178,9 -120,0 -181,-3 -177,-10 3,-5 -3,-3 -13,5 -15,12 -17,12 -10,1 6,-11 5,-12 -6,-5 -19,12 -199,12 -192,0 4,-5 1,-6 -6,-2 -6,4 -9,12 -6,17 4,5 1,9 -5,9 -7,0 -10,-7 -6,-17 5,-15 4,-15 -9,1 -11,14 -15,16 -15,5 0,-12 -2,-12 -10,1 -9,13 -10,13 -10,0 0,-13 -1,-13 -10,0 -9,13 -10,13 -10,0 0,-13 -1,-13 -10,0 -9,13 -10,13 -10,0 0,-13 -1,-13 -10,0 -9,13 -10,13 -10,0 0,-13 -1,-13 -10,0 -9,13 -10,13 -10,0 0,-12 -2,-13 -9,-1 -7,11 -9,11 -14,0 -4,-11 -6,-11 -6,1 -1,13 -2,13 -11,0 -9,-13 -10,-13 -10,0 0,13 -1,13 -10,0 -9,-13 -10,-13 -10,0 0,13 -1,13 -10,0 -8,-13 -10,-13 -10,-1 0,11 -4,9 -15,-5 -13,-16 -14,-16 -9,-1 3,9 1,17 -5,17 -6,0 -10,-3 -9,-7 2,-5 -1,-8 -7,-8 -5,0 -9,3 -7,8 4,13 -11,7 -25,-10 -8,-10 -12,-13 -9,-6 4,6 2,14 -4,18 -5,3 -10,-2 -11,-12 0,-16 -1,-16 -9,2 l -9,20 -1,-20 -1,-20 -9,20 -9,20 -1,-20 -1,-20 -9,20 -9,20 -1,-20 -1,-20 -9,20 -9,20 -1,-20 -1,-20 -9,20 -9,20 -1,-20 -1,-20 -9,20 -9,20 -1,-20 -1,-20 -9,20 -9,20 -1,-20 -1,-20 -9,20 -9,20 -1,-20 -1,-20 -9,20 -9,20 -1,-20 -1,-20 -8,20 -8,20 -5,-20 c -5,-16 -6,-17 -7,-2 0,9 -5,17 -11,17 -5,0 -7,-8 -4,-17 5,-15 4,-16 -5,-3 -9,13 -11,13 -11,0 0,-13 -1,-13 -10,0 -9,13 -10,13 -10,0 0,-13 -1,-13 -10,0 -9,13 -10,13 -10,0 0,-13 -1,-13 -10,0 -9,13 -10,13 -10,0 0,-13 -1,-13 -10,0 -9,13 -10,13 -10,0 0,-13 -1,-13 -10,0 -7,10 -10,11 -11,3 -3,-28 -4,-32 -13,-40 -5,-4 -6,3 -2,19 4,16 1,30 -6,34 -8,5 -9,1 -5,-12 7,-18 7,-18 -8,0 -11,14 -15,16 -15,5 0,-12 -2,-12 -10,1 -9,13 -10,13 -10,0 0,-13 -1,-13 -10,0 -9,13 -10,13 -10,0 0,-13 -1,-13 -10,0 -9,13 -10,13 -10,0 0,-13 -1,-13 -10,0 -9,13 -10,13 -10,0 0,-13 -1,-13 -10,0 -9,13 -10,13 -10,0 0,-12 -2,-13 -9,-1 -7,11 -9,11 -14,0 -4,-11 -6,-11 -6,0 -1,11 -5,10 -16,-5 -13,-16 -14,-16 -9,-1 4,10 1,17 -6,17 -6,0 -9,-4 -5,-9 3,-5 0,-13 -6,-17 -7,-4 -10,-3 -6,2 3,5 -18,9 -48,9 -30,0 -51,-4 -48,-9 4,-5 1,-6 -6,-2 -6,4 -9,12 -6,17 4,5 1,9 -5,9 -7,0 -10,-7 -6,-17 5,-15 4,-15 -9,1 -11,14 -15,16 -15,5 0,-12 -2,-12 -10,1 -9,13 -10,13 -10,0 0,-13 -1,-13 -10,0 -9,13 -10,13 -10,0 0,-13 -1,-13 -10,0 -9,13 -10,13 -10,0 0,-12 -2,-13 -9,-1 -7,11 -9,11 -14,0 -4,-11 -6,-11 -6,1 -1,13 -2,13 -11,0 -8,-13 -10,-13 -10,-1 0,11 -4,9 -15,-5 -13,-16 -14,-16 -9,-1 4,10 1,17 -6,17 -6,0 -9,-4 -5,-9 3,-5 0,-13 -6,-17 -8,-5 -9,-3 -4,7 7,11 5,11 -10,-1 -10,-8 -16,-10 -13,-5 4,7 -10,11 -37,11 -24,0 -41,-5 -38,-10 3,-5 1,-6 -6,-2 -6,4 -9,12 -6,17 4,5 1,9 -5,9 -7,0 -10,-6 -7,-13 3,-8 -1,-14 -8,-14 -7,0 -11,6 -8,14 6,14 -13,18 -21,4 -3,-5 -19,-7 -36,-6 -20,2 -27,-1 -23,-9 4,-6 -2,-4 -12,4 -17,13 -18,13 -10,0 5,-9 4,-12 -1,-7 -5,5 -9,28 -10,53 -1,34 2,42 11,34 15,-13 34,7 30,33 -2,9 0,15 5,12 9,-5 8,-23 -1,-40 -3,-5 -4,-16 -3,-22 1,-7 2,-20 3,-29 0,-8 5,-13 10,-10 4,3 7,17 6,31 -2,14 1,27 6,31 5,3 6,10 3,16 -4,7 -2,8 5,4 6,-4 9,-11 6,-16 -3,-4 2,-13 11,-20 8,-7 13,-19 10,-27 -3,-7 -2,-13 3,-13 18,0 20,15 6,37 -9,13 -13,23 -9,23 4,0 0,8 -7,18 -12,15 -12,16 2,5 9,-7 20,-9 25,-5 4,4 3,0 -3,-8 -9,-11 -8,-19 2,-33 7,-11 16,-14 19,-8 4,5 2,13 -4,16 -7,4 -8,11 -1,18 5,7 10,17 11,22 1,6 3,12 5,13 6,7 0,-23 -8,-35 -4,-6 -3,-14 3,-18 5,-3 10,-1 10,6 0,28 16,-8 19,-44 1,-5 5,-6 10,-3 10,7 9,25 -2,43 -4,6 -3,14 3,18 6,4 8,10 5,15 -3,5 -1,11 4,14 10,7 9,-13 -2,-31 -4,-6 -3,-14 2,-17 5,-4 12,0 15,6 2,7 4,4 3,-7 -2,-11 -6,-25 -10,-32 -4,-6 -3,-14 2,-18 16,-9 30,57 17,75 -9,13 -9,13 5,2 11,-8 14,-22 11,-40 -3,-15 -1,-23 4,-19 5,5 9,14 9,20 0,7 7,12 15,12 9,0 15,9 14,22 -1,13 3,20 8,17 5,-3 7,-9 4,-12 -3,-3 -1,-11 5,-18 7,-9 7,-19 0,-33 -6,-11 -7,-22 -2,-25 5,-3 11,4 14,15 3,12 10,18 16,14 6,-3 11,-1 11,4 0,6 -6,11 -12,11 -9,0 -10,3 -2,8 6,4 10,15 8,25 -1,9 1,15 5,12 5,-2 7,-21 6,-40 -1,-20 2,-38 7,-41 8,-5 11,10 11,49 0,13 3,15 13,6 10,-8 11,-15 1,-30 -9,-14 -9,-21 2,-31 10,-11 12,-10 10,2 -1,8 4,28 11,43 12,24 15,26 23,12 8,-15 11,-15 30,2 15,12 18,13 9,2 -6,-9 -9,-19 -5,-22 3,-4 12,1 19,11 9,13 10,21 1,32 -6,8 -7,12 -3,8 5,-4 16,-2 25,5 14,11 14,10 2,-5 -7,-10 -11,-18 -7,-18 4,0 0,-10 -8,-23 -10,-15 -12,-27 -6,-37 9,-14 11,-12 14,20 1,10 11,15 28,14 24,0 27,3 23,23 -2,13 0,21 5,18 4,-3 7,-16 5,-30 -1,-14 2,-28 6,-31 5,-3 9,3 10,13 0,11 3,13 6,5 3,-7 -1,-19 -7,-27 -8,-10 -9,-15 -2,-15 16,0 29,31 27,63 -2,24 8,30 11,6 1,-5 3,-11 4,-14 1,-3 3,-9 4,-15 0,-5 6,-9 11,-7 6,1 8,7 6,12 -2,6 -4,15 -5,20 -1,6 -5,15 -9,22 -4,6 -3,15 3,18 6,4 10,3 9,-2 -1,-4 0,-10 1,-13 1,-3 3,-12 5,-21 4,-21 36,-71 42,-65 3,2 -1,15 -8,28 -14,26 -21,54 -11,43 4,-4 7,-10 8,-13 2,-20 17,-41 26,-36 5,3 4,11 -3,20 -6,8 -8,14 -4,14 4,0 2,6 -4,13 -8,10 -7,14 3,14 7,0 13,-8 12,-18 -1,-10 4,-19 9,-19 6,0 10,9 10,20 0,10 7,25 15,32 12,11 12,11 4,-2 -13,-20 -12,-45 3,-45 6,0 15,-3 19,-8 4,-4 17,1 28,10 12,10 16,11 9,4 -7,-9 -9,-20 -4,-30 9,-16 11,-23 11,-38 0,-5 4,-1 10,7 5,9 5,19 -2,27 -7,9 -7,17 1,26 8,10 7,17 -2,28 -6,7 -8,10 -3,6 5,-4 19,1 30,10 21,18 21,18 2,-4 -11,-13 -15,-23 -11,-23 5,0 4,-5 -3,-12 -21,-21 -13,-32 9,-12 11,10 20,14 19,9 -5,-21 0,-36 9,-30 6,3 8,15 6,26 -4,20 -3,20 14,5 14,-13 20,-14 28,-4 6,7 9,21 8,31 -2,9 0,15 5,12 9,-5 8,-23 -1,-40 -8,-14 -5,-27 9,-50 11,-18 12,-16 8,15 l -6,35 13,-34 c 10,-25 15,-30 19,-19 4,8 1,21 -5,27 -8,8 -7,15 6,26 9,8 12,10 7,3 -6,-7 -10,-17 -10,-22 1,-6 9,-1 19,11 15,17 20,19 24,9 3,-8 3,-23 0,-34 -2,-11 1,-23 8,-28 8,-5 11,-3 7,7 -3,8 -2,23 2,34 5,13 2,27 -9,40 -8,11 -12,17 -7,13 5,-4 16,-2 25,5 14,10 14,10 3,-5 -7,-9 -9,-19 -4,-22 5,-3 7,-21 6,-41 -3,-32 -1,-35 11,-25 11,9 12,16 5,25 -8,9 -8,15 0,20 8,5 7,12 -2,23 -11,15 -11,15 3,5 9,-7 20,-9 24,-5 5,4 4,0 -1,-8 -12,-22 -14,-39 -3,-46 5,-3 10,0 10,5 3,26 4,30 11,37 4,4 2,14 -4,23 -7,9 -8,13 -4,9 5,-4 16,-2 24,5 13,10 14,9 7,-3 -15,-25 -14,-38 6,-56 10,-9 19,-12 19,-6 0,6 -4,13 -9,16 -10,6 -9,31 1,41 3,3 5,-3 4,-14 0,-11 4,-21 9,-21 6,0 10,9 10,20 0,10 6,25 14,32 12,11 12,10 5,-2 -14,-24 -12,-59 4,-72 13,-11 14,-9 8,12 -6,19 -5,21 3,10 10,-14 16,-7 11,15 -1,5 2,6 7,2 4,-5 9,-13 9,-18 3,-22 5,-23 15,-9 9,13 10,13 8,0 -3,-28 1,-53 7,-47 4,4 7,26 8,51 1,25 4,47 8,51 3,3 4,-10 2,-31 -2,-21 3,-45 11,-58 12,-17 15,-17 15,-4 0,9 -5,20 -10,23 -8,5 -8,11 -1,19 6,7 7,16 3,20 -4,4 0,6 8,4 8,-1 14,2 15,9 0,6 3,14 7,18 10,11 3,-21 -8,-36 -6,-8 -9,-20 -8,-26 1,-7 2,-20 3,-29 0,-8 5,-13 10,-10 4,3 7,17 6,30 -2,14 3,30 10,36 10,8 13,7 11,-4 -1,-9 -5,-19 -9,-22 -4,-4 -7,-12 -7,-18 1,-6 9,-1 20,12 10,12 17,31 15,42 -2,11 0,22 5,25 4,3 6,-12 4,-33 -3,-34 -2,-36 11,-18 8,11 15,15 15,9 0,-7 -4,-15 -10,-18 -5,-3 -10,-12 -10,-18 1,-7 9,-1 20,12 11,12 17,28 13,35 -3,6 3,3 14,-7 17,-15 22,-15 31,-4 7,8 10,17 7,20 -3,4 -2,4 2,1 5,-3 8,-9 8,-12 2,-27 17,-62 25,-57 6,4 7,12 3,18 -4,7 -8,19 -8,27 0,8 -4,22 -10,30 -7,13 -6,13 7,2 9,-7 15,-22 13,-32 -2,-11 0,-22 6,-25 5,-4 9,0 10,7 1,22 7,50 12,55 3,2 3,-16 2,-41 -3,-45 8,-69 19,-41 3,8 1,17 -5,21 -7,4 -6,10 0,18 6,7 9,15 6,18 -3,2 2,5 10,5 9,0 11,-5 7,-11 -11,-14 -9,-27 6,-51 12,-18 12,-17 7,12 -4,18 -2,34 5,38 8,5 7,12 -2,23 -12,15 -11,16 5,3 12,-10 14,-17 7,-26 -6,-7 -8,-25 -4,-40 5,-19 9,-23 15,-14 4,7 3,19 -3,26 -6,7 -8,14 -4,14 3,1 11,3 16,4 6,1 13,3 17,4 3,0 -4,12 -16,25 -17,18 -19,26 -10,31 7,5 10,4 6,-2 -7,-12 16,-36 26,-28 4,3 5,2 2,-2 -3,-3 0,-12 6,-19 7,-9 7,-19 0,-33 -14,-25 -14,-28 3,-28 8,0 14,11 14,25 0,13 8,31 18,40 12,12 15,12 7,2 -6,-8 -11,-27 -11,-43 0,-22 3,-25 14,-16 10,8 11,15 4,24 -7,9 -6,16 5,25 11,9 12,16 5,25 -8,9 -8,15 0,20 6,4 10,3 9,-2 -1,-4 -1,-10 1,-13 1,-3 4,-16 7,-30 2,-14 6,-32 8,-40 2,-8 4,-17 4,-20 1,-3 5,2 10,10 6,8 7,19 3,25 -3,5 -8,19 -9,30 -3,18 -2,19 8,2 6,-9 15,-15 20,-11 6,4 4,13 -6,24 -11,12 -13,20 -5,25 6,4 9,1 8,-7 -2,-7 4,-12 12,-10 8,2 12,0 8,-4 -4,-4 -3,-13 3,-20 7,-9 7,-19 -1,-34 -6,-12 -9,-24 -7,-27 3,-2 10,5 17,16 6,12 15,19 21,16 5,-4 9,-1 9,4 0,6 -6,11 -12,11 -9,0 -10,3 -2,8 6,4 10,15 8,24 -1,10 1,20 5,22 4,3 7,-15 6,-40 0,-24 3,-50 7,-57 8,-13 11,-1 9,38 l -1,20 9,-20 c 11,-22 13,-18 15,24 0,16 4,32 7,36 4,3 6,-3 5,-14 0,-11 4,-19 9,-18 6,1 9,5 8,8 -1,3 5,6 12,6 12,0 12,-3 3,-15 -16,-18 -19,-40 -7,-48 5,-3 10,0 10,5 1,6 3,16 4,21 1,6 3,13 4,16 0,4 7,1 15,-5 11,-10 17,-8 25,6 10,15 10,14 7,-9 -3,-15 1,-32 9,-38 10,-9 12,-4 10,24 -2,23 1,35 8,33 6,-1 11,3 12,10 0,6 3,14 7,18 12,12 2,-23 -11,-39 -14,-17 -5,-60 10,-50 6,4 6,10 -1,19 -7,9 -6,16 5,25 8,7 15,9 15,5 0,-5 10,0 23,11 22,19 22,19 5,-1 -24,-28 -19,-82 5,-58 4,3 2,12 -3,18 -7,8 -4,17 8,28 17,15 18,15 19,-5 1,-12 -2,-28 -8,-34 -6,-8 -6,-14 -1,-18 13,-8 25,21 26,61 1,17 4,34 7,38 4,3 5,-10 3,-30 -3,-31 -1,-35 11,-25 8,7 12,16 9,21 -3,5 0,8 7,7 7,-2 13,2 14,9 0,6 3,14 7,18 11,11 3,-22 -9,-37 -8,-9 -9,-19 -3,-28 9,-15 11,-13 14,13 0,6 6,12 11,12 6,0 17,4 25,10 12,7 13,6 3,-6 -10,-12 -8,-21 7,-44 12,-18 20,-24 20,-14 0,8 -5,20 -11,26 -8,8 -8,16 0,30 10,16 11,15 5,-7 -6,-22 -5,-23 9,-12 8,7 21,11 28,10 7,-2 13,2 14,9 0,7 6,18 14,25 12,11 12,10 5,-2 -12,-22 -12,-81 0,-77 6,2 10,17 10,34 -1,18 4,30 11,30 10,0 10,-5 2,-18 -9,-14 -8,-21 2,-31 12,-11 13,-10 8,4 -3,9 1,22 9,29 11,9 12,15 2,28 -7,9 -8,13 -4,9 5,-4 16,-2 25,5 13,10 14,10 5,-3 -18,-25 -11,-44 16,-44 19,0 25,5 24,22 -1,12 3,19 7,16 5,-3 7,-9 4,-14 -3,-5 -1,-11 4,-14 5,-4 7,-23 4,-44 -3,-20 -3,-34 1,-30 4,3 9,14 11,25 1,10 8,17 14,16 6,-2 11,2 11,7 0,6 -6,10 -12,10 -9,0 -10,3 -2,8 6,4 10,14 9,23 -2,9 3,16 11,16 8,0 10,-4 5,-11 -5,-6 -7,-20 -5,-31 1,-10 -1,-24 -6,-30 -5,-6 -5,-17 -1,-24 6,-9 11,-5 16,16 5,15 8,36 8,46 0,16 2,16 24,-4 13,-13 21,-29 19,-36 -3,-7 -1,-15 3,-18 5,-3 11,2 15,10 3,9 -8,31 -26,53 -18,20 -28,34 -24,30 5,-4 16,-2 25,5 14,10 14,10 3,-4 -17,-22 7,-45 28,-26 12,10 12,9 3,-3 -8,-10 -9,-21 -3,-30 9,-14 11,-13 14,9 0,5 4,13 8,17 4,4 2,14 -5,23 -10,14 -10,14 5,3 16,-13 18,-28 6,-47 -4,-6 -3,-17 3,-25 5,-8 9,-13 10,-10 0,3 3,14 5,25 3,11 6,26 6,33 1,8 7,7 20,-5 11,-10 17,-25 14,-36 -3,-11 0,-17 7,-14 20,6 15,30 -12,62 l -26,30 28,-24 c 15,-14 27,-20 27,-15 1,5 9,-1 19,-13 10,-12 21,-19 25,-16 3,4 -4,18 -16,32 l -23,26 27,-23 c 25,-23 27,-23 37,-5 8,13 11,14 10,3 -3,-28 1,-37 16,-37 18,0 20,13 3,21 -7,3 -4,4 7,3 15,-1 20,4 19,19 -1,11 5,21 12,21 10,0 11,-4 3,-13 -7,-8 -7,-14 1,-19 5,-3 7,-17 4,-30 -3,-13 0,-26 7,-31 8,-5 11,-2 7,8 -4,8 -2,21 2,29 5,7 5,18 -1,25 -7,8 -6,15 3,20 7,4 10,4 6,-1 -11,-12 11,-35 27,-29 7,3 12,14 10,25 -2,10 0,21 4,24 5,2 7,-9 6,-25 -1,-17 1,-33 6,-36 8,-5 13,9 10,28 0,5 4,7 11,5 7,-1 12,3 13,10 0,6 3,14 7,18 13,13 2,-20 -14,-44 -16,-23 -14,-56 3,-46 4,3 6,11 3,18 -2,7 4,21 15,31 11,10 19,22 16,26 -2,4 3,7 11,7 11,0 9,-6 -7,-23 -14,-15 -17,-24 -9,-29 6,-4 9,-13 6,-21 -3,-8 -2,-14 3,-14 15,0 20,13 11,30 -7,13 -4,22 13,36 22,19 22,19 5,-1 -12,-14 -14,-25 -8,-35 9,-13 14,-8 12,12 -1,3 5,11 13,18 10,8 13,8 11,-2 -1,-7 -4,-17 -8,-23 -3,-5 -2,-19 3,-30 4,-11 8,-15 9,-10 1,6 4,19 6,30 3,11 6,30 7,42 2,13 9,28 17,35 12,11 12,10 4,-2 -13,-19 -11,-46 3,-43 6,1 10,-10 9,-28 -1,-17 1,-32 6,-35 4,-3 8,0 8,6 0,7 7,9 16,6 10,-4 14,-2 11,6 -2,7 -9,12 -14,11 -5,-1 -9,9 -9,22 0,22 2,23 16,10 9,-8 21,-12 25,-8 5,5 4,1 -2,-7 -7,-9 -8,-21 -4,-29 12,-19 19,-2 17,42 -1,21 1,40 5,43 5,2 6,-3 5,-13 -5,-27 12,-65 25,-57 8,4 7,9 -2,16 -11,7 -9,8 6,6 14,-2 20,3 20,19 0,12 3,24 6,28 4,3 6,-7 4,-24 -1,-16 0,-33 4,-38 9,-12 31,-15 31,-4 0,5 -6,12 -12,15 -7,3 -4,4 7,3 15,-1 20,4 19,19 -1,11 5,21 12,21 7,0 10,-5 6,-11 -12,-19 -10,-35 4,-47 13,-10 14,-8 10,16 -5,26 -4,26 13,11 10,-9 21,-13 26,-9 4,5 5,2 1,-5 -4,-7 -11,-10 -15,-7 -5,2 -8,-7 -8,-22 v -26 l 18,24 c 12,15 17,35 15,51 -2,16 -1,30 4,33 4,2 7,-3 7,-13 0,-40 4,-53 12,-47 6,3 8,14 6,25 -2,12 0,18 5,15 9,-6 8,-24 -2,-40 -4,-6 -3,-17 3,-25 5,-8 9,-12 10,-7 1,4 3,12 4,17 1,6 3,18 4,28 2,15 3,14 10,-3 5,-11 4,-25 -1,-32 -5,-7 -5,-14 1,-17 13,-8 22,23 16,53 -2,13 -1,20 3,17 7,-8 8,-13 11,-42 0,-8 5,-13 11,-9 5,3 7,13 4,23 -5,14 -4,15 5,2 6,-9 7,-18 1,-24 -16,-16 -11,-29 5,-16 11,9 14,23 10,44 -3,17 -2,24 3,16 4,-9 13,-15 20,-14 6,1 17,2 23,3 5,0 8,5 5,10 -3,5 2,15 12,22 15,12 16,12 6,-1 -5,-8 -9,-21 -8,-27 1,-7 2,-18 3,-24 0,-5 5,-8 10,-4 6,3 8,15 6,26 -4,20 -3,21 14,5 18,-16 20,-16 30,1 10,16 11,15 7,-7 -2,-14 3,-35 11,-45 14,-19 15,-18 9,15 -4,26 -4,30 3,15 5,-11 10,-17 12,-12 5,21 7,28 8,40 1,8 4,8 11,-3 5,-9 5,-19 -1,-26 -6,-8 -6,-14 0,-18 5,-3 11,-3 14,1 2,5 2,3 1,-4 -4,-17 13,-26 19,-11 2,7 0,21 -5,31 -16,32 -17,54 -2,54 9,0 11,-4 5,-10 -12,-12 8,-59 21,-51 5,3 4,12 -2,19 -8,9 -8,15 0,20 6,3 8,10 5,15 -3,5 -1,11 4,14 10,7 9,-13 -2,-31 -4,-6 -3,-14 2,-17 5,-4 11,-3 14,1 2,5 2,3 1,-4 -4,-17 13,-26 19,-11 2,7 3,6 2,-3 -1,-9 1,-23 6,-30 9,-14 10,-11 13,60 0,16 4,32 8,36 3,4 5,-1 4,-12 -2,-10 1,-23 6,-30 5,-7 5,-14 -2,-18 -5,-3 -10,-16 -10,-27 0,-22 15,-16 15,5 1,7 7,11 14,9 9,-2 11,3 6,15 -12,31 -14,52 -5,58 4,3 7,-3 5,-12 -1,-10 2,-26 7,-36 6,-12 5,-23 -3,-33 -8,-9 -8,-14 -1,-14 14,0 34,35 25,44 -11,10 -12,37 -2,30 5,-3 7,-9 4,-13 -2,-5 4,-16 15,-26 21,-19 28,-7 8,13 -7,7 -8,12 -4,12 5,0 3,6 -3,14 -8,10 -9,16 -1,21 6,4 9,1 8,-7 -2,-7 3,-12 11,-10 11,2 12,0 4,-10 -8,-10 -8,-18 2,-32 8,-10 11,-25 7,-34 -5,-15 -3,-15 11,-4 15,13 15,16 1,37 -10,16 -12,25 -4,30 6,3 8,10 6,14 -3,4 1,8 9,8 13,0 13,-2 1,-16 -10,-11 -12,-21 -6,-31 9,-14 11,-13 14,9 0,5 4,12 8,16 8,9 5,-16 -5,-32 -4,-6 -3,-14 2,-17 8,-5 24,23 26,46 0,3 4,10 9,15 5,4 6,3 2,-4 -10,-17 10,-25 23,-9 9,11 5,16 -20,25 -17,6 -37,18 -43,26 -6,9 -25,16 -42,18 -20,1 -31,7 -30,17 1,8 -8,16 -19,18 -11,2 -28,13 -38,23 -10,10 -26,19 -36,19 -11,0 -21,6 -24,13 -3,6 -27,23 -53,37 -27,14 -60,33 -73,43 -13,9 -32,17 -41,17 -10,0 -20,7 -24,15 -3,8 -12,15 -20,15 -8,0 -21,7 -29,15 -8,8 -21,16 -28,17 -8,2 -19,8 -26,15 -18,16 -241,143 -252,143 -5,0 -11,4 -13,8 -2,7 -558,332 -1318,772 -63,37 -396,230 -740,430 -344,200 -668,388 -720,418 -52,30 -159,93 -238,139 -78,45 -145,83 -147,83 -3,0 -5,-547 -5,-1215 z m 1457,-1083 c -10,-10 -14,-22 -10,-25 3,-4 4,-7 1,-7 -3,0 -12,8 -19,17 -8,9 -9,14 -3,10 7,-4 17,0 24,8 7,8 15,15 18,15 3,0 -2,-8 -11,-18 z m 1200,11 c -4,-3 -1,-13 6,-22 11,-14 10,-14 -5,-2 -16,12 -16,31 -1,31 4,0 3,-3 0,-7 z m 113,3 c 0,-2 -8,-10 -17,-17 -16,-13 -17,-12 -4,4 13,16 21,21 21,13 z m -1976,-15 c 3,-5 -2,-15 -12,-22 -15,-12 -16,-12 -5,2 7,9 10,19 6,22 -3,4 -4,7 0,7 3,0 8,-4 11,-9 z m 1276,5 c 0,-2 -8,-10 -17,-17 -16,-13 -17,-12 -4,4 13,16 21,21 21,13 z m 187,-3 c -4,-3 -1,-13 6,-22 11,-14 10,-14 -5,-2 -16,12 -16,31 -1,31 4,0 3,-3 0,-7 z m 1180,0 c -4,-3 -1,-13 6,-22 11,-14 10,-14 -5,-2 -16,12 -16,31 -1,31 4,0 3,-3 0,-7 z m 50,0 c -4,-3 -1,-13 6,-22 11,-14 10,-14 -5,-2 -16,12 -16,31 -1,31 4,0 3,-3 0,-7 z m -3450,-20 c 0,-9 -4,-10 -14,-2 -7,6 -13,12 -13,14 0,1 6,2 13,2 8,0 14,-6 14,-14 z m 240,0 c 0,-9 -4,-10 -14,-2 -7,6 -13,12 -13,14 0,1 6,2 13,2 8,0 14,-6 14,-14 z m 127,1 c 3,-8 2,-12 -4,-9 -6,3 -10,10 -10,16 0,14 7,11 14,-7 z m 66,11 c 0,-2 -6,-8 -13,-14 -10,-8 -14,-7 -14,2 0,8 6,14 14,14 7,0 13,-1 13,-2 z m 67,-10 c 0,-8 -4,-12 -9,-9 -5,3 -6,10 -3,15 9,13 12,11 12,-6 z m 370,-2 c 0,-9 -4,-10 -14,-2 -7,6 -13,12 -13,14 0,1 6,2 13,2 8,0 14,-6 14,-14 z m 73,12 c 0,-2 -6,-8 -13,-14 -10,-8 -14,-7 -14,2 0,8 6,14 14,14 7,0 13,-1 13,-2 z m 267,-12 c 0,-9 -4,-10 -14,-2 -7,6 -13,12 -13,14 0,1 6,2 13,2 8,0 14,-6 14,-14 z m 443,12 c 0,-2 -6,-8 -13,-14 -10,-8 -14,-7 -14,2 0,8 6,14 14,14 7,0 13,-1 13,-2 z m 267,-10 c 0,-8 -4,-12 -9,-9 -5,3 -6,10 -3,15 9,13 12,11 12,-6 z m 440,0 c 0,-8 -4,-12 -9,-9 -5,3 -6,10 -3,15 9,13 12,11 12,-6 z m 330,-2 c 0,-9 -4,-10 -14,-2 -7,6 -13,12 -13,14 0,1 6,2 13,2 8,0 14,-6 14,-14 z m 50,2 c 0,-8 -4,-12 -9,-9 -5,3 -6,10 -3,15 9,13 12,11 12,-6 z m 340,-2 c 0,-9 -4,-10 -14,-2 -7,6 -13,12 -13,14 0,1 6,2 13,2 8,0 14,-6 14,-14 z m 60,2 c 0,-8 -4,-12 -9,-9 -5,3 -6,10 -3,15 9,13 12,11 12,-6 z m 60,0 c 0,-8 -4,-12 -9,-9 -5,3 -6,10 -3,15 9,13 12,11 12,-6 z m 80,-2 c 0,-9 -4,-10 -14,-2 -7,6 -13,12 -13,14 0,1 6,2 13,2 8,0 14,-6 14,-14 z m 93,11 c 0,-8 -19,-13 -24,-6 -3,5 1,9 9,9 8,0 15,-2 15,-3 z m 161,-11 c 13,-16 12,-17 -3,-4 -17,13 -22,21 -14,21 2,0 10,-8 17,-17 z m 56,0 c 0,-9 -4,-10 -14,-2 -7,6 -13,12 -13,14 0,1 6,2 13,2 8,0 14,-6 14,-14 z m 120,2 c 0,-8 -4,-12 -9,-9 -5,3 -6,10 -3,15 9,13 12,11 12,-6 z m -3629,-110 c 1,-8 3,-22 4,-30 1,-8 5,-12 9,-9 5,2 6,11 3,19 -4,10 0,13 15,10 11,-2 23,0 25,4 5,7 56,7 64,1 7,-7 49,-5 60,3 10,8 11,5 3,-15 -5,-14 -7,-29 -3,-34 4,-4 1,-4 -6,0 -7,4 -10,11 -7,16 3,5 0,12 -6,16 -7,4 -9,3 -5,-4 3,-6 2,-13 -4,-17 -5,-3 -11,2 -11,12 -1,17 -2,17 -6,0 -4,-14 -8,-16 -19,-6 -11,9 -15,8 -20,-5 -3,-9 -10,-13 -15,-10 -5,3 -5,13 0,23 7,13 6,18 -4,18 -7,0 -11,-6 -8,-13 2,-6 -1,-15 -8,-20 -8,-5 -11,-2 -7,8 4,8 1,15 -7,15 -8,0 -11,-7 -7,-16 3,-9 2,-13 -3,-9 -4,4 -14,3 -21,-3 -14,-11 -14,-11 -28,35 -3,8 -2,17 1,20 9,8 9,8 11,-9 z m -35,-12 c -3,-7 -6,-13 -8,-13 -2,0 -5,6 -8,13 -3,8 1,14 8,14 7,0 11,-6 8,-14 z m 279,-5 c -2,-9 -11,-23 -20,-30 -13,-11 -14,-10 -10,2 3,8 2,22 -3,31 -6,11 -2,15 15,15 17,0 22,-5 18,-18 z m 78,12 c 3,-1 8,-2 12,-1 4,0 0,-13 -10,-30 -15,-27 -32,-40 -32,-24 0,3 -6,18 -14,34 -15,27 -14,28 12,25 15,-1 29,-3 32,-4 z m 120,0 c 3,-1 9,-2 13,-1 5,1 6,-3 2,-9 -5,-8 -12,-7 -22,2 -9,7 -17,13 -18,13 -1,0 -9,-6 -18,-13 -10,-9 -17,-10 -22,-2 -3,6 -11,7 -17,4 -6,-4 -8,-3 -5,3 5,8 71,10 87,3 z m 202,-20 c 8,-23 8,-23 -11,-6 -18,17 -20,17 -29,0 -9,-16 -11,-15 -22,6 l -13,24 -18,-23 -18,-22 -11,21 c -9,16 -15,19 -25,10 -7,-6 -16,-7 -19,-2 -9,16 0,18 80,17 72,0 77,-2 86,-25 z m 418,3 c 0,-13 -3,-13 -16,-3 -13,11 -16,10 -21,-8 -3,-12 -9,-20 -13,-17 -5,3 -6,14 -3,25 3,11 9,18 13,15 5,-3 11,-1 15,5 9,14 25,3 25,-17 z m 258,17 c 5,-6 28,-6 37,0 9,6 169,6 180,0 12,-6 31,-6 40,0 9,6 329,6 340,0 11,-6 31,-6 40,-1 14,8 176,8 181,0 2,-4 17,-5 33,-4 27,2 29,1 19,-21 -6,-13 -15,-21 -20,-18 -5,3 -5,11 1,18 8,9 7,13 -4,13 -8,0 -12,-4 -9,-8 2,-4 0,-10 -6,-14 -5,-3 -11,2 -11,12 -1,17 -2,17 -6,0 -3,-13 -8,-15 -18,-7 -9,8 -17,4 -29,-15 -9,-14 -21,-23 -27,-20 -5,4 -7,10 -5,14 3,4 -2,18 -11,30 l -16,23 -24,-28 c -14,-16 -22,-21 -19,-12 2,9 -1,22 -9,28 -11,9 -16,7 -25,-10 l -12,-22 -15,22 -16,23 -19,-24 c -11,-14 -18,-18 -16,-9 2,8 -2,15 -7,15 -5,0 -9,-7 -7,-15 2,-9 -5,-5 -16,9 l -19,24 -16,-23 -15,-22 -12,23 -13,23 -18,-22 c -16,-20 -38,-15 -25,6 3,5 -1,9 -9,9 -8,0 -12,-4 -10,-8 8,-12 -6,-39 -17,-33 -5,3 -4,11 3,20 6,8 9,14 5,14 -3,0 -9,0 -13,0 -5,0 -8,-4 -8,-9 0,-5 -4,-13 -9,-18 -5,-4 -7,1 -4,13 3,12 0,21 -7,21 -7,0 -10,-8 -7,-21 5,-19 4,-19 -11,-7 -14,11 -18,11 -23,-3 -3,-9 -10,-13 -15,-10 -5,3 -5,13 0,23 7,13 6,18 -4,18 -7,0 -11,-6 -8,-13 2,-6 -1,-15 -8,-20 -8,-5 -11,-2 -7,8 4,8 1,15 -7,15 -7,0 -11,-7 -8,-16 4,-12 1,-12 -10,2 -15,18 -15,18 -22,-2 -3,-12 -11,-19 -16,-15 -6,4 -6,11 2,20 6,8 9,14 5,14 -3,0 -9,0 -13,0 -5,0 -8,-4 -8,-9 0,-5 -4,-13 -9,-18 -5,-4 -7,1 -4,13 3,12 0,21 -7,21 -7,0 -10,-8 -8,-17 3,-10 -1,-17 -11,-17 -8,0 -13,4 -10,8 5,8 -14,22 -33,25 -7,1 -16,-2 -19,-7 -3,-6 -11,-6 -20,2 -11,9 -16,6 -25,-15 -7,-14 -16,-23 -21,-20 -5,3 -5,11 1,18 8,9 7,13 -4,13 -8,0 -12,-4 -9,-8 2,-4 -1,-11 -7,-15 -8,-5 -10,-1 -7,13 3,12 0,20 -7,20 -7,0 -10,-8 -7,-21 5,-18 3,-19 -10,-8 -13,10 -18,8 -32,-13 -9,-14 -21,-23 -27,-20 -5,4 -7,10 -4,15 3,4 -3,18 -14,31 l -18,23 -13,-23 -12,-23 -15,22 -16,23 -18,-24 -19,-24 4,25 c 3,14 5,25 5,25 5,2 217,-3 219,-5 z m 957,-5 c 6,-1 15,3 22,7 6,5 14,5 17,-1 4,-5 15,-8 26,-6 19,4 19,3 3,-20 -20,-25 -35,-24 -26,3 5,14 2,13 -11,-3 -13,-14 -16,-15 -13,-4 3,9 -1,16 -8,16 -7,0 -11,-7 -8,-16 4,-12 1,-12 -10,2 -15,18 -15,17 -22,-3 -7,-22 -12,-23 -15,-5 -1,6 -7,16 -13,24 -9,11 -9,13 0,8 6,-4 14,-3 18,3 4,6 12,7 18,3 7,-4 17,-8 22,-8 z m 150,-9 c 0,-23 -1,-24 -18,-8 -10,9 -18,12 -17,7 2,-6 2,-16 1,-24 -1,-20 -14,-5 -16,18 -1,13 4,18 17,16 9,-2 20,0 23,6 9,13 10,12 10,-15 z m 38,7 c -3,-7 -6,-13 -8,-13 -2,0 -5,6 -8,13 -3,8 1,14 8,14 7,0 11,-6 8,-14 z m 344,5 c 5,-15 -9,-38 -19,-32 -5,3 -7,12 -5,18 3,7 -1,13 -9,13 -7,0 -11,-4 -9,-8 8,-12 -6,-39 -17,-33 -5,3 -4,11 3,20 6,8 9,14 5,14 -3,0 -9,0 -13,0 -5,0 -8,-4 -8,-9 0,-5 -4,-13 -9,-18 -5,-4 -7,1 -4,13 3,12 0,21 -7,21 -7,0 -10,-9 -7,-21 5,-20 3,-20 -22,4 l -27,24 -6,-22 -6,-23 -24,23 -24,22 -6,-22 c -4,-18 -8,-20 -19,-11 -11,9 -15,8 -20,-5 -8,-21 -25,-10 -17,12 4,13 2,13 -10,-3 -16,-20 -16,-20 -14,2 1,14 7,20 19,18 10,-2 20,-1 22,3 6,10 250,9 253,0 z m 75,-14 c -5,-26 -30,-26 -44,1 -7,12 -7,16 0,11 6,-3 13,-3 16,2 11,19 33,8 28,-14 z m 60,4 c -2,-9 -11,-23 -20,-30 -13,-11 -14,-10 -10,2 3,8 2,22 -3,31 -6,11 -2,15 15,15 17,0 22,-5 18,-18 z m -3027,-18 c -4,-12 -9,-19 -12,-17 -3,3 -2,15 2,27 4,12 9,19 12,17 3,-3 2,-15 -2,-27 z m 906,10 c 0,-10 3,-9 9,5 6,13 9,15 9,5 1,-13 2,-13 11,0 5,8 10,10 10,4 0,-6 -8,-18 -18,-27 -16,-15 -19,-15 -31,5 -13,20 -14,21 -26,4 -13,-16 -14,-16 -23,0 -9,16 -10,15 -17,-5 -3,-11 -11,-19 -16,-15 -6,4 -6,10 0,18 8,9 7,13 -4,13 -8,0 -12,-4 -9,-8 2,-4 0,-10 -5,-13 -5,-3 -11,2 -13,12 -4,15 3,17 59,17 49,0 63,-3 64,-15 z m 82,5 c 4,-8 2,-17 -3,-20 -6,-4 -10,3 -10,14 0,25 6,27 13,6 z m 28,6 c 7,12 9,11 9,-1 0,-14 -19,-51 -21,-40 -5,32 -7,52 -2,41 5,-11 7,-11 14,0 z m 39,-24 c 0,-5 -4,-5 -10,-2 -5,3 -10,14 -10,23 0,15 2,15 10,2 5,-8 10,-19 10,-23 z m 21,24 c 7,11 9,10 9,-3 0,-9 -4,-20 -10,-23 -5,-3 -10,-4 -10,-1 0,2 -2,10 -3,18 -2,7 -2,9 1,4 2,-4 8,-2 13,5 z m 2009,-32 c 0,-6 -4,-7 -10,-4 -5,3 -10,11 -10,16 0,6 5,7 10,4 6,-3 10,-11 10,-16 z"
       id="path1"
       style="fill:#f6fdfa;fill-opacity:1" />
    <path
       d="m 34336,15612 c -3,-5 1,-9 9,-9 8,0 12,4 9,9 -3,4 -7,8 -9,8 -2,0 -6,-4 -9,-8 z"
       id="path2"
       style="fill:#f6fdfa;fill-opacity:1" />
    <path
       d="m 34537,15600 c -3,-11 -2,-22 2,-24 4,-3 8,6 9,20 2,29 -4,31 -11,4 z"
       id="path3"
       style="fill:#f6fdfa;fill-opacity:1" />
    <path
       d="m 34766,15608 c 3,-5 10,-6 15,-3 13,9 11,12 -6,12 -8,0 -12,-4 -9,-9 z"
       id="path4"
       style="fill:#f6fdfa;fill-opacity:1" />
    <path
       d="m 34826,15608 c 3,-5 10,-6 15,-3 13,9 11,12 -6,12 -8,0 -12,-4 -9,-9 z"
       id="path5"
       style="fill:#f6fdfa;fill-opacity:1" />
    <path
       d="m 35386,15608 c 3,-5 10,-6 15,-3 13,9 11,12 -6,12 -8,0 -12,-4 -9,-9 z"
       id="path6"
       style="fill:#f6fdfa;fill-opacity:1" />
    <path
       d="m 35446,15608 c 3,-5 10,-5 16,-2 7,5 9,1 5,-9 -3,-9 -2,-19 4,-22 5,-4 9,-3 8,2 -4,23 3,31 22,28 12,-3 19,-1 15,3 -10,10 -76,10 -70,0 z"
       id="path7"
       style="fill:#f6fdfa;fill-opacity:1" />
    <path
       d="m 35856,15612 c -3,-5 1,-9 9,-9 8,0 12,4 9,9 -3,4 -7,8 -9,8 -2,0 -6,-4 -9,-8 z"
       id="path8"
       style="fill:#f6fdfa;fill-opacity:1" />
    <path
       d="m 36026,15608 c 3,-5 10,-6 15,-3 13,9 11,12 -6,12 -8,0 -12,-4 -9,-9 z"
       id="path9"
       style="fill:#f6fdfa;fill-opacity:1" />
    <path
       d="m 36226,15608 c 3,-5 10,-6 15,-3 13,9 11,12 -6,12 -8,0 -12,-4 -9,-9 z"
       id="path10"
       style="fill:#f6fdfa;fill-opacity:1" />
    <path
       d="m 36286,15608 c 3,-5 10,-5 16,-2 7,5 9,1 5,-9 -3,-9 -2,-19 4,-22 5,-4 9,-3 8,2 -4,22 3,31 21,28 11,-2 22,-1 24,3 2,4 -15,8 -39,8 -24,0 -41,-4 -39,-8 z"
       id="path11"
       style="fill:#f6fdfa;fill-opacity:1" />
    <path
       d="m 36795,15609 c -3,-4 2,-6 10,-5 21,3 28,13 10,13 -9,0 -18,-4 -20,-8 z"
       id="path12"
       style="fill:#f6fdfa;fill-opacity:1" />
    <path
       d="m 36866,15608 c 3,-5 10,-6 15,-3 13,9 11,12 -6,12 -8,0 -12,-4 -9,-9 z"
       id="path13"
       style="fill:#f6fdfa;fill-opacity:1" />
    <path
       d="m 37096,15603 c -6,-14 -5,-15 5,-6 7,7 10,15 7,18 -3,3 -9,-2 -12,-12 z"
       id="path14"
       style="fill:#f6fdfa;fill-opacity:1" />
    <path
       d="m 38107,15718 c -10,-5 -15,-14 -11,-20 4,-7 10,-5 16,3 8,11 8,10 4,-3 -3,-10 -9,-26 -12,-35 -4,-12 1,-9 14,7 11,13 18,29 15,34 -3,5 -1,6 6,2 6,-4 8,-12 5,-18 -4,-7 -2,-8 4,-4 13,8 6,32 -12,39 -7,3 -20,1 -29,-5 z"
       id="path15"
       style="fill:#f6fdfa;fill-opacity:1" />
    <path
       d="m 34204,15688 c 1,-13 -2,-28 -6,-35 -6,-8 -4,-11 8,-9 21,3 28,40 10,55 -10,9 -13,6 -12,-11 z"
       id="path16"
       style="fill:#f6fdfa;fill-opacity:1" />
    <path
       d="m 34415,15701 c -3,-6 -12,-8 -18,-4 -7,4 -5,-2 3,-12 9,-11 10,-16 2,-11 -7,4 -15,1 -18,-9 -5,-12 -9,-13 -14,-5 -5,8 -9,7 -13,-3 -6,-16 9,-17 31,-4 6,5 18,5 25,1 6,-4 9,-4 5,1 -4,4 -3,16 3,27 11,21 6,37 -6,19 z"
       id="path17"
       style="fill:#f6fdfa;fill-opacity:1" />
    <path
       d="m 34533,15691 c -7,-11 -8,-23 -2,-32 7,-12 9,-12 10,1 1,8 1,19 0,23 -1,5 3,6 9,2 5,-3 10,-2 10,4 0,19 -16,20 -27,2 z"
       id="path18"
       style="fill:#f6fdfa;fill-opacity:1" />
    <path
       d="m 34837,15692 c -24,-28 -27,-39 -11,-39 9,0 13,6 10,14 -3,8 -2,12 3,8 5,-3 12,1 15,7 3,7 3,3 0,-9 -4,-16 -1,-21 13,-18 10,1 23,0 28,-4 19,-11 35,-9 28,2 -8,12 -9,17 -12,37 0,6 -4,9 -8,9 -5,-1 -10,0 -13,1 -22,8 -41,5 -53,-8 z m 62,-18 c 4,3 8,-1 8,-9 0,-10 -4,-12 -12,-5 -7,5 -14,8 -16,5 -3,-2 -6,6 -6,18 -2,20 -1,20 8,4 6,-9 14,-15 18,-13 z"
       id="path19"
       style="fill:#f6fdfa;fill-opacity:1" />
    <path
       d="m 35001,15704 c 1,-5 -2,-20 -8,-33 l -10,-25 -7,27 c -4,16 -11,25 -17,21 -6,-3 -8,-8 -5,-11 3,-3 1,-13 -4,-22 -7,-15 -4,-17 23,-16 18,0 38,4 45,8 6,5 17,5 22,2 6,-3 10,-2 10,3 0,16 -13,22 -26,11 -8,-7 -14,-6 -20,2 -4,7 -3,9 3,6 6,-4 17,1 24,11 7,9 9,14 5,10 -5,-4 -15,-3 -23,4 -8,6 -13,7 -12,2 z"
       id="path20"
       style="fill:#f6fdfa;fill-opacity:1" />
    <path
       d="m 35113,15698 c -13,-22 -13,-45 0,-45 7,0 12,13 13,29 1,31 -1,34 -13,16 z"
       id="path21"
       style="fill:#f6fdfa;fill-opacity:1" />
    <path
       d="m 35222,15706 c 9,-11 -10,-48 -22,-41 -5,3 -11,2 -14,-3 -2,-4 6,-8 20,-8 15,0 24,6 25,16 0,11 3,10 8,-4 6,-17 8,-17 14,-4 3,10 -3,23 -16,34 -12,11 -19,15 -15,10 z"
       id="path22"
       style="fill:#f6fdfa;fill-opacity:1" />
    <path
       d="m 35528,15685 c -24,-32 -23,-33 15,-30 17,2 37,0 42,-3 6,-4 24,-7 42,-7 24,-1 30,2 23,10 -5,7 -6,16 -2,21 4,5 -3,0 -15,-10 -23,-19 -23,-19 -37,15 -14,32 -17,33 -20,10 0,-6 -7,-16 -13,-22 -10,-10 -12,-8 -8,9 6,31 -7,34 -27,7 z"
       id="path23"
       style="fill:#f6fdfa;fill-opacity:1" />
    <path
       d="m 35755,15701 c -3,-6 -12,-8 -18,-5 -9,5 -9,4 0,-6 8,-8 9,-19 3,-30 -6,-12 -5,-17 5,-17 8,0 12,4 9,8 -3,5 0,18 6,30 12,21 7,39 -5,20 z"
       id="path24"
       style="fill:#f6fdfa;fill-opacity:1" />
    <path
       d="m 35826,15701 c -4,-5 -1,-13 4,-16 8,-5 6,-12 -4,-24 -14,-16 -13,-17 9,-17 14,0 21,4 17,11 -3,5 -8,19 -9,29 -4,25 -9,30 -17,17 z"
       id="path25"
       style="fill:#f6fdfa;fill-opacity:1" />
    <path
       d="m 35895,15701 c -3,-6 -12,-8 -18,-5 -9,5 -9,4 0,-6 8,-8 9,-19 3,-30 -6,-12 -5,-17 5,-17 8,0 12,4 9,8 -3,5 0,18 6,30 12,21 7,39 -5,20 z"
       id="path26"
       style="fill:#f6fdfa;fill-opacity:1" />
    <path
       d="m 36004,15702 c 3,-6 2,-13 -4,-17 -5,-3 -14,-14 -19,-23 -9,-16 -1,-17 87,-17 104,0 98,-3 93,51 0,8 -6,12 -11,9 -8,-5 -8,-11 0,-20 10,-12 2,-24 -21,-37 -12,-6 -49,34 -42,46 3,6 3,8 -2,4 -4,-4 -14,-3 -22,4 -8,6 -13,7 -12,2 2,-5 -1,-19 -5,-32 -7,-22 -9,-22 -21,-5 -7,10 -11,21 -9,25 2,4 -1,10 -7,14 -7,4 -9,3 -5,-4 z m 76,-37 c 5,3 11,2 14,-3 2,-4 -6,-8 -19,-8 -16,0 -21,4 -17,15 4,10 7,11 10,3 2,-7 8,-10 12,-7 z"
       id="path27"
       style="fill:#f6fdfa;fill-opacity:1" />
    <path
       d="m 36195,15701 c -3,-5 -1,-12 5,-16 5,-3 10,1 10,9 0,18 -6,21 -15,7 z"
       id="path28"
       style="fill:#f6fdfa;fill-opacity:1" />
    <path
       d="m 36304,15704 c 3,-7 -1,-17 -9,-24 -12,-10 -16,-9 -21,4 -6,16 -8,16 -25,0 -11,-9 -19,-22 -19,-27 0,-6 7,-2 15,9 9,12 13,13 10,4 -4,-12 2,-16 30,-16 19,0 35,5 35,11 0,5 5,3 10,-5 5,-8 10,-10 10,-5 0,6 -10,21 -21,35 -11,14 -18,20 -15,14 z"
       id="path29"
       style="fill:#f6fdfa;fill-opacity:1" />
    <path
       d="m 36469,15703 c -1,-4 -2,-12 -3,-18 0,-5 -5,-12 -11,-13 -15,-5 -35,-24 -35,-32 0,-13 31,-5 40,9 6,11 8,11 12,0 3,-8 7,1 10,19 2,18 1,35 -4,38 -4,3 -9,2 -9,-3 z"
       id="path30"
       style="fill:#f6fdfa;fill-opacity:1" />
    <path
       d="m 36536,15703 c -4,-4 -15,-8 -24,-8 -11,0 -18,-10 -20,-30 -4,-30 7,-31 12,-1 2,18 20,22 22,6 4,-32 7,-32 14,0 9,37 8,45 -4,33 z"
       id="path31"
       style="fill:#f6fdfa;fill-opacity:1" />
    <path
       d="m 36622,15697 c 0,-6 -3,-21 -7,-32 -5,-17 -2,-21 19,-21 16,0 22,4 17,9 -5,5 -7,15 -5,22 3,6 -1,17 -9,23 -10,9 -14,9 -15,-1 z m 15,-32 c 0,-8 -4,-12 -9,-9 -5,3 -6,10 -3,15 9,13 12,11 12,-6 z"
       id="path32"
       style="fill:#f6fdfa;fill-opacity:1" />
    <path
       d="m 36739,15701 c -3,-21 -4,-26 -13,-40 -8,-12 -11,-11 -22,3 -12,17 -13,17 -23,-2 -8,-16 -7,-19 12,-18 12,1 28,5 35,9 6,5 16,6 20,3 4,-2 9,6 10,19 2,23 -17,47 -19,26 z"
       id="path33"
       style="fill:#f6fdfa;fill-opacity:1" />
    <path
       d="m 36794,15695 c 2,-11 -1,-26 -7,-32 -12,-16 -17,-15 75,-17 60,-1 75,1 67,11 -6,6 -8,22 -4,35 6,22 5,22 -9,4 -9,-10 -13,-22 -11,-27 3,-4 0,-11 -6,-15 -7,-4 -9,-3 -5,4 3,6 2,13 -4,17 -5,3 -10,-2 -10,-12 -1,-12 -5,-9 -13,11 -11,25 -14,27 -26,13 -7,-9 -10,-20 -7,-25 3,-5 -1,-9 -8,-9 -8,0 -12,5 -10,11 3,7 -2,20 -10,31 -15,20 -15,20 -12,0 z m 64,-40 c -3,-3 -9,2 -12,12 -6,14 -5,15 5,6 7,-7 10,-15 7,-18 z"
       id="path34"
       style="fill:#f6fdfa;fill-opacity:1" />
    <path
       d="m 37159,15703 c 0,-4 -2,-17 -4,-29 -3,-12 1,-21 8,-21 15,0 21,43 7,52 -6,3 -10,3 -11,-2 z"
       id="path35"
       style="fill:#f6fdfa;fill-opacity:1" />
    <path
       d="m 37673,15704 c 4,-7 0,-17 -8,-24 -12,-10 -16,-9 -21,4 -8,22 -23,20 -19,-1 2,-10 4,-22 4,-28 1,-5 6,-3 11,5 8,13 10,13 10,1 0,-11 4,-9 15,5 13,16 14,16 9,2 -9,-27 1,-22 21,10 10,15 14,24 10,20 -5,-4 -15,-2 -23,5 -10,7 -13,8 -9,1 z"
       id="path36"
       style="fill:#f6fdfa;fill-opacity:1" />
    <path
       d="m 38062,15685 c -7,-14 -16,-24 -21,-20 -5,3 -16,-4 -24,-15 -13,-18 -15,-19 -21,-5 -3,9 -3,22 1,27 3,6 1,8 -5,4 -6,-3 -14,-1 -17,5 -5,6 -13,3 -22,-11 -8,-12 -21,-19 -29,-16 -7,3 -16,1 -19,-4 -9,-14 -32,-5 -53,20 l -19,24 -18,-28 -18,-27 -22,21 -22,21 -7,-23 -6,-23 -18,23 c -16,21 -18,21 -29,4 -7,-12 -22,-18 -38,-18 -26,2 -48,23 -39,37 2,4 0,10 -6,14 -5,3 -10,0 -10,-8 0,-8 -9,-22 -19,-31 -18,-16 -20,-16 -29,-1 -8,16 -9,16 -16,0 -5,-14 -9,-15 -21,-5 -8,7 -15,9 -15,4 0,-5 -9,2 -18,14 l -18,24 -18,-26 c -18,-28 -42,-26 -31,2 3,9 3,13 -1,9 -4,-4 -15,0 -24,8 -16,14 -18,14 -24,0 -3,-9 -10,-13 -16,-10 -5,3 -10,-1 -10,-10 0,-10 4,-13 12,-9 23,15 44,11 43,-8 -1,-9 -5,-21 -10,-25 -4,-5 -5,-3 -1,4 3,6 1,15 -5,19 -9,5 -10,-1 -5,-19 3,-15 1,-29 -5,-32 -6,-4 -10,-1 -8,6 1,8 1,23 -1,34 l -1,20 -9,-20 -9,-20 -1,20 -1,20 -9,-20 -9,-20 -1,20 -1,20 -9,-20 c -7,-17 -9,-17 -9,-2 -1,9 -5,17 -11,17 -5,0 -7,-8 -3,-17 3,-10 3,-15 -1,-12 -4,4 -8,16 -11,28 -3,19 -1,20 17,10 18,-10 20,-9 14,7 -6,18 -5,18 9,0 11,-14 15,-16 15,-5 0,8 -4,20 -9,27 -6,10 -10,10 -21,-3 -10,-12 -16,-13 -28,-3 -10,8 -13,8 -9,2 8,-14 -16,-37 -29,-26 -4,4 -3,0 4,-9 7,-9 12,-21 10,-25 -1,-5 2,-18 8,-29 12,-23 12,-35 0,-53 -4,-7 -5,-16 -2,-19 3,-4 6,-1 6,6 0,7 4,10 9,7 4,-3 8,2 7,12 0,9 4,17 9,17 6,0 9,-8 9,-17 -1,-10 3,-15 8,-12 5,3 7,8 4,11 -3,3 4,19 15,35 26,36 37,30 14,-6 -10,-14 -14,-26 -10,-26 4,0 1,-8 -6,-17 -13,-16 -12,-17 3,-5 10,8 17,17 16,20 -2,21 4,30 20,27 9,-1 16,-7 15,-13 -1,-5 8,-18 20,-28 l 22,-19 -18,22 c -13,15 -15,23 -7,28 7,4 9,18 5,33 -5,22 -4,24 8,13 16,-12 17,-27 4,-48 -4,-6 -2,-15 4,-19 7,-4 9,-3 6,3 -4,6 0,16 8,23 8,7 13,16 10,20 -3,5 -1,11 5,15 14,9 13,-28 -2,-43 -8,-8 -8,-15 2,-27 7,-8 15,-13 18,-10 3,3 12,-1 21,-8 14,-11 14,-10 3,5 -8,10 -19,16 -24,15 -6,-1 -13,4 -16,12 -3,9 0,11 7,7 6,-4 11,-4 10,1 -4,24 2,53 11,48 5,-3 6,-13 3,-23 -4,-10 2,-7 15,8 12,14 21,20 22,14 0,-6 -3,-14 -7,-18 -5,-4 -8,-13 -8,-19 -1,-7 -7,-11 -15,-9 -10,3 -9,-2 4,-17 10,-11 23,-18 27,-15 11,6 12,15 2,12 -5,-2 -8,2 -8,7 0,6 4,9 9,7 5,-2 4,3 -2,11 -7,8 -9,17 -5,20 3,4 12,-1 20,-11 13,-15 13,-14 3,6 -18,36 -4,38 15,3 15,-29 13,-36 -10,-31 -5,1 -7,-2 -2,-6 4,-4 -3,-19 -15,-33 -13,-14 0,-5 28,21 l 50,48 24,-23 c 13,-12 19,-15 12,-7 -7,10 -8,21 -2,30 6,8 10,13 11,10 0,-3 2,-14 4,-24 2,-10 11,-26 21,-35 15,-15 15,-14 0,11 -17,26 -14,35 12,34 6,-1 11,-5 10,-11 -2,-5 -7,-9 -13,-7 -5,2 -2,-5 8,-16 9,-10 14,-22 10,-27 -5,-4 -2,-5 5,-1 9,5 10,12 3,19 -10,13 21,61 33,50 3,-4 0,-14 -8,-22 -11,-12 -12,-21 -5,-31 8,-12 9,-11 7,5 -2,12 2,19 10,18 6,-2 11,2 10,9 -2,7 5,12 15,13 9,0 16,-4 15,-10 -2,-5 -6,-9 -10,-7 -5,1 -7,-4 -5,-10 1,-7 -3,-12 -9,-11 -6,1 -11,-5 -11,-14 0,-10 14,-2 38,24 21,23 40,38 44,35 3,-3 -9,-22 -27,-41 -18,-20 -24,-28 -12,-18 11,9 24,14 28,10 4,-5 6,-1 4,7 -1,8 3,14 10,13 6,-2 11,0 10,5 -2,4 0,7 3,7 3,0 14,7 24,15 17,14 18,13 12,-2 -3,-10 -2,-20 4,-23 5,-4 6,-11 3,-17 -4,-7 -2,-8 5,-4 6,4 8,13 4,19 -10,17 -11,47 -1,53 4,3 9,-2 9,-10 3,-30 4,-34 13,-43 5,-4 6,-3 3,3 -4,7 1,18 10,25 15,12 16,12 10,-6 -7,-18 -6,-19 6,-3 8,10 17,15 20,12 3,-3 3,5 0,18 -5,23 -5,23 10,3 14,-18 16,-18 22,-3 4,10 15,15 26,13 12,-3 17,0 13,7 -4,7 -3,8 4,4 8,-5 10,-1 6,11 -5,15 -4,16 5,3 8,-11 11,-12 11,-2 0,7 4,11 9,7 6,-3 15,4 21,16 9,17 9,24 -2,36 -13,12 -16,10 -26,-12 z m 19,-8 c -6,-8 -9,-16 -6,-19 3,-2 -2,-5 -10,-5 -13,0 -13,3 2,19 19,21 31,25 14,5 z m -581,-32 c 0,5 5,4 12,-3 8,-8 15,-8 24,-1 8,7 14,7 19,-1 5,-8 13,-6 26,6 16,14 21,15 35,3 22,-18 61,-19 75,-2 10,11 15,11 29,-2 15,-14 18,-14 30,0 12,14 15,14 30,0 17,-15 19,-14 34,7 11,15 16,18 17,8 0,-11 2,-12 6,-2 4,10 9,8 19,-6 13,-20 36,-23 50,-9 4,4 13,2 19,-3 9,-8 14,-6 19,5 3,9 10,13 16,10 5,-3 10,0 10,7 1,7 7,2 14,-11 18,-32 10,-59 -10,-34 -13,17 -14,17 -20,-4 -3,-13 -10,-20 -15,-17 -5,3 -7,9 -4,14 3,5 1,11 -4,15 -6,3 -8,-3 -6,-15 5,-27 -11,-35 -18,-8 l -6,22 -27,-24 -27,-25 6,23 c 3,14 1,20 -5,15 -6,-3 -8,-2 -5,4 3,5 -1,10 -9,10 -10,0 -11,-4 -4,-11 5,-5 10,-16 10,-24 0,-12 -3,-12 -15,-2 -12,10 -16,9 -21,-4 -3,-9 -10,-13 -15,-10 -5,3 -5,13 0,23 9,15 6,18 -17,16 -20,-1 -26,-6 -24,-19 2,-11 -1,-15 -8,-11 -6,4 -9,13 -7,19 3,7 -1,13 -9,13 -7,0 -11,-4 -9,-8 8,-12 -6,-39 -17,-33 -5,3 -4,11 3,20 6,8 10,14 8,15 -2,1 -16,2 -30,3 -22,2 -25,-1 -21,-18 5,-19 4,-19 -11,-7 -14,11 -18,11 -23,-3 -5,-12 -10,-14 -19,-6 -9,7 -16,6 -25,-5 -11,-14 -15,-12 -31,14 -17,29 -32,33 -56,18 -6,-4 -14,-3 -17,2 -7,10 -25,9 -43,-2 -12,-7 -26,7 -29,31 -2,10 1,10 10,3 10,-8 18,-5 31,9 17,19 19,19 37,4 10,-10 18,-13 18,-9 z m -233,9 c -15,-15 13,-42 42,-39 30,2 30,2 13,-20 -19,-26 -34,-24 -25,3 5,14 3,14 -9,-2 -14,-18 -15,-18 -23,0 -7,17 -10,43 -6,59 1,3 4,5 8,5 3,0 3,-3 0,-6 z m 763,-14 c -6,-11 -13,-20 -16,-20 -2,0 0,9 6,20 6,11 13,20 16,20 2,0 0,-9 -6,-20 z m -330,-35 c 0,-2 -7,-8 -15,-15 -12,-10 -15,-10 -15,2 0,8 7,15 15,15 8,0 15,-1 15,-2 z m 80,-6 c 0,-15 -18,-19 -23,-6 -3,8 1,14 9,14 8,0 14,-4 14,-8 z m -390,-15 c 0,-8 -5,-12 -10,-9 -6,4 -8,11 -5,16 9,14 15,11 15,-7 z"
       id="path37"
       style="fill:#f6fdfa;fill-opacity:1" />
    <path
       d="m 37445,15640 c -10,-11 -22,-17 -28,-13 -6,3 -7,1 -3,-6 4,-6 13,-8 19,-4 17,11 30,11 44,1 6,-5 14,-5 18,2 3,6 11,7 17,4 7,-5 8,-2 4,5 -5,7 -11,10 -14,7 -3,-3 -13,1 -22,9 -15,14 -19,13 -35,-5 z m 36,-7 c 12,-16 12,-17 -2,-6 -9,7 -20,9 -24,5 -5,-4 -5,-1 -1,6 9,16 11,15 27,-5 z"
       id="path38"
       style="fill:#f6fdfa;fill-opacity:1" />
    <path
       d="m 37580,15635 c -9,-11 -16,-12 -25,-5 -25,21 -24,-7 1,-31 l 25,-23 6,22 c 3,12 9,22 14,22 5,0 6,-8 3,-17 -4,-11 -3,-14 3,-7 4,6 15,10 24,9 9,-2 16,3 16,11 0,7 -4,11 -8,9 -3,-3 -12,2 -19,10 -16,19 -24,19 -40,0 z m 41,-12 c 11,-15 11,-16 -1,-5 -20,17 -29,15 -38,-9 -8,-20 -8,-20 -27,3 -12,14 -14,18 -4,10 13,-10 19,-9 29,3 16,19 25,19 41,-2 z"
       id="path39"
       style="fill:#f6fdfa;fill-opacity:1" />
    <path
       d="m 37692,15637 c -9,-10 -6,-13 13,-13 19,0 22,3 13,13 -6,7 -12,13 -13,13 -1,0 -7,-6 -13,-13 z"
       id="path40"
       style="fill:#f6fdfa;fill-opacity:1" />
    <path
       d="m 37752,15637 c -9,-10 -6,-13 13,-13 19,0 22,3 13,13 -6,7 -12,13 -13,13 -1,0 -7,-6 -13,-13 z"
       id="path41"
       style="fill:#f6fdfa;fill-opacity:1" />
    <path
       d="m 37813,15637 c -13,-20 -11,-34 3,-34 10,0 11,4 3,14 -6,7 -9,14 -5,14 23,5 32,4 43,-4 7,-5 10,-13 7,-18 -10,-16 3,-9 17,9 7,9 9,14 5,10 -5,-4 -16,-2 -24,4 -19,17 -40,19 -49,5 z"
       id="path42"
       style="fill:#f6fdfa;fill-opacity:1" />
    <path
       d="m 37946,15633 c -6,-14 -5,-15 5,-6 7,7 10,15 7,18 -3,3 -9,-2 -12,-12 z"
       id="path43"
       style="fill:#f6fdfa;fill-opacity:1" />
    <path
       d="m 37970,15641 c 0,-6 4,-13 10,-16 6,-3 7,1 4,9 -7,18 -14,21 -14,7 z"
       id="path44"
       style="fill:#f6fdfa;fill-opacity:1" />
    <path
       d="m 37905,15631 c -3,-5 -2,-12 3,-15 5,-3 9,1 9,9 0,17 -3,19 -12,6 z"
       id="path45"
       style="fill:#f6fdfa;fill-opacity:1" />
    <path
       d="m 34143,15672 c 2,-14 11,-26 20,-28 13,-2 14,3 7,21 -5,13 -7,25 -4,27 2,3 -3,5 -11,5 -10,0 -14,-8 -12,-25 z"
       id="path46"
       style="fill:#f6fdfa;fill-opacity:1" />
    <path
       d="m 34269,15673 c -13,-14 -18,-23 -11,-19 6,4 18,4 25,-1 17,-10 57,-12 51,-1 -3,4 -9,6 -14,3 -11,-7 -32,30 -23,39 3,3 4,6 1,6 -2,0 -15,-12 -29,-27 z"
       id="path47"
       style="fill:#f6fdfa;fill-opacity:1" />
    <path
       d="m 34563,15681 c -16,-25 -16,-34 -3,-26 6,4 16,3 23,-2 7,-5 32,-9 56,-9 34,1 45,5 47,18 1,9 -3,21 -9,26 -17,13 -49,11 -43,-3 2,-7 -1,-18 -7,-24 -8,-8 -16,-5 -32,14 -20,25 -20,25 -32,6 z m 106,-9 c 8,-15 6,-18 -14,-18 -13,0 -21,4 -19,8 3,5 10,5 16,2 7,-5 9,-1 5,9 -9,23 0,22 12,-1 z m -78,-9 c 13,-16 12,-17 -3,-4 -17,13 -22,21 -14,21 2,0 10,-8 17,-17 z"
       id="path48"
       style="fill:#f6fdfa;fill-opacity:1" />
    <path
       d="m 35272,15680 c -17,-27 -17,-27 28,-26 31,1 39,4 35,16 -3,9 1,7 10,-4 12,-16 15,-17 15,-4 0,8 -6,21 -14,27 -11,9 -15,8 -20,-5 -6,-15 -8,-15 -24,-1 -16,15 -19,15 -30,-3 z"
       id="path49"
       style="fill:#f6fdfa;fill-opacity:1" />
    <path
       d="m 36366,15692 c -2,-4 0,-16 5,-27 5,-14 8,-16 9,-5 2,8 2,19 1,24 -1,5 4,4 12,-2 10,-9 14,-9 14,1 0,14 -34,21 -41,9 z"
       id="path50"
       style="fill:#f6fdfa;fill-opacity:1" />
    <path
       d="m 36959,15690 c -7,-46 -7,-46 49,-45 49,0 55,3 58,22 2,12 -1,25 -8,29 -7,5 -9,2 -5,-9 3,-8 0,-20 -7,-26 -10,-9 -17,-5 -30,13 -13,21 -54,33 -57,16 z m 44,-18 c 14,-15 15,-19 2,-19 -8,0 -12,4 -9,8 2,4 0,10 -6,14 -5,3 -10,-2 -10,-11 0,-10 -3,-15 -6,-11 -6,6 2,37 9,37 2,0 11,-8 20,-18 z"
       id="path51"
       style="fill:#f6fdfa;fill-opacity:1" />
    <path
       d="m 38166,15684 c -4,-9 -13,-14 -22,-10 -8,3 -13,2 -10,-2 2,-4 -900,-532 -2005,-1172 L 34120,13336 V 10978 8620 l 48,27 c 27,16 940,545 2029,1177 1732,1005 1980,1151 1965,1163 -16,12 -16,13 1,7 16,-6 17,110 17,2350 0,1296 -2,2356 -4,2356 -2,0 -7,-7 -10,-16 z m -2686,-3140 c 0,-2 -9,0 -20,6 -11,6 -20,13 -20,16 0,2 9,0 20,-6 11,-6 20,-13 20,-16 z m 380,-220 c 0,-2 -9,0 -20,6 -11,6 -20,13 -20,16 0,2 9,0 20,-6 11,-6 20,-13 20,-16 z m 310,-180 c 0,-2 -9,0 -20,6 -11,6 -20,13 -20,16 0,2 9,0 20,-6 11,-6 20,-13 20,-16 z m 380,-220 c 0,-2 -9,0 -20,6 -11,6 -20,13 -20,16 0,2 9,0 20,-6 11,-6 20,-13 20,-16 z m 310,-180 c 0,-2 -9,0 -20,6 -11,6 -20,13 -20,16 0,2 9,0 20,-6 11,-6 20,-13 20,-16 z m 70,-40 c 0,-2 -9,0 -20,6 -11,6 -20,13 -20,16 0,2 9,0 20,-6 11,-6 20,-13 20,-16 z m 310,-180 c 0,-2 -9,0 -20,6 -11,6 -20,13 -20,16 0,2 9,0 20,-6 11,-6 20,-13 20,-16 z m 310,-180 c 0,-2 -9,0 -20,6 -11,6 -20,13 -20,16 0,2 9,0 20,-6 11,-6 20,-13 20,-16 z m 70,-40 c 0,-2 -9,0 -20,6 -11,6 -20,13 -20,16 0,2 9,0 20,-6 11,-6 20,-13 20,-16 z m 310,-180 c 0,-2 -9,0 -20,6 -11,6 -20,13 -20,16 0,2 9,0 20,-6 11,-6 20,-13 20,-16 z m 70,-40 c 0,-2 -9,0 -20,6 -11,6 -20,13 -20,16 0,2 9,0 20,-6 11,-6 20,-13 20,-16 z"
       id="path52"
       style="fill:#f6fdfa;fill-opacity:1" />
    <path
       d="m 34723,15671 c -9,-14 -8,-18 3,-18 15,0 27,24 16,31 -5,3 -13,-3 -19,-13 z"
       id="path53"
       style="fill:#f6fdfa;fill-opacity:1" />
    <path
       d="m 34762,15678 c -18,-18 -15,-24 13,-24 20,0 22,3 12,16 -6,8 -12,16 -12,17 -1,2 -7,-3 -13,-9 z"
       id="path54"
       style="fill:#f6fdfa;fill-opacity:1" />
    <path
       d="m 35467,15672 c -15,-16 -15,-19 -2,-19 8,0 15,5 15,11 0,6 5,4 10,-4 5,-8 10,-10 10,-5 0,6 -4,16 -8,23 -7,10 -12,8 -25,-6 z"
       id="path55"
       style="fill:#f6fdfa;fill-opacity:1" />
    <path
       d="m 34450,15667 c 0,-8 7,-14 15,-14 11,0 12,4 4,14 -6,7 -13,13 -15,13 -2,0 -4,-6 -4,-13 z"
       id="path56"
       style="fill:#f6fdfa;fill-opacity:1" />
    <path
       d="m 35924,15662 c -10,-15 -8,-18 11,-18 20,0 22,3 14,18 -5,10 -11,18 -12,18 -1,0 -7,-8 -13,-18 z"
       id="path57"
       style="fill:#f6fdfa;fill-opacity:1" />
    <path
       d="m 37101,15667 c -8,-10 -7,-14 4,-14 8,0 15,6 15,14 0,7 -2,13 -4,13 -2,0 -9,-6 -15,-13 z"
       id="path58"
       style="fill:#f6fdfa;fill-opacity:1" />
    <path
       d="m 35677,15657 c -3,-8 1,-14 8,-14 7,0 11,6 8,14 -3,7 -6,13 -8,13 -2,0 -5,-6 -8,-13 z"
       id="path59"
       style="fill:#f6fdfa;fill-opacity:1" />
    <path
       d="m 34256,15532 -19,-27 24,22 c 12,12 21,24 18,27 -2,2 -13,-8 -23,-22 z"
       id="path60"
       style="fill:#f6fdfa;fill-opacity:1" />
    <path
       d="m 34376,15545 c -3,-9 -10,-14 -15,-11 -5,3 -15,-2 -22,-12 -12,-15 -12,-16 2,-5 9,7 18,11 21,8 3,-3 11,1 18,10 7,9 11,18 8,21 -3,3 -8,-2 -12,-11 z"
       id="path61"
       style="fill:#f6fdfa;fill-opacity:1" />
    <path
       d="m 34424,15549 c -5,-8 -3,-9 6,-4 10,6 12,4 7,-8 -3,-9 -3,-18 1,-21 4,-3 8,4 9,14 2,23 -13,35 -23,19 z"
       id="path62"
       style="fill:#f6fdfa;fill-opacity:1" />
    <path
       d="m 35030,15552 c 0,-6 5,-14 10,-17 6,-4 7,-11 4,-17 -4,-7 -2,-8 5,-4 9,6 9,12 -1,24 -7,10 -14,19 -15,21 -2,2 -3,-1 -3,-7 z"
       id="path63"
       style="fill:#f6fdfa;fill-opacity:1" />
    <path
       d="m 35251,15536 c -17,-19 -20,-26 -9,-32 7,-4 10,-4 6,1 -9,9 11,37 21,30 4,-2 8,2 8,10 0,19 1,19 -26,-9 z"
       id="path64"
       style="fill:#f6fdfa;fill-opacity:1" />
    <path
       d="m 35599,15533 c -17,-20 -18,-23 -3,-11 16,14 23,15 34,5 12,-10 12,-9 2,4 -6,9 -9,19 -5,22 3,4 4,7 1,7 -2,0 -15,-12 -29,-27 z"
       id="path65"
       style="fill:#f6fdfa;fill-opacity:1" />
    <path
       d="m 35700,15552 c 0,-6 5,-14 10,-17 6,-4 7,-11 4,-17 -4,-7 -2,-8 5,-4 9,6 9,12 -1,24 -7,10 -14,19 -15,21 -2,2 -3,-1 -3,-7 z"
       id="path66"
       style="fill:#f6fdfa;fill-opacity:1" />
    <path
       d="m 36118,15548 c 9,-9 8,-16 -6,-32 -17,-21 -17,-21 4,-3 11,9 25,14 30,10 5,-5 0,2 -10,15 -11,12 -22,22 -25,22 -3,0 0,-5 7,-12 z"
       id="path67"
       style="fill:#f6fdfa;fill-opacity:1" />
    <path
       d="m 37099,15555 c -1,-3 -2,-8 -3,-12 -1,-5 -5,-15 -11,-23 -7,-12 -6,-13 7,-3 8,7 19,9 24,5 4,-4 3,0 -4,9 -6,9 -9,19 -5,22 3,4 3,7 0,7 -4,0 -8,-2 -8,-5 z"
       id="path68"
       style="fill:#f6fdfa;fill-opacity:1" />
    <path
       d="m 37350,15552 c 0,-6 5,-14 10,-17 6,-4 7,-11 4,-17 -4,-7 -2,-8 5,-4 9,6 9,12 -1,24 -7,10 -14,19 -15,21 -2,2 -3,-1 -3,-7 z"
       id="path69"
       style="fill:#f6fdfa;fill-opacity:1" />
    <path
       d="m 37569,15533 -24,-28 26,23 c 22,19 28,20 37,9 7,-8 8,-18 4,-22 -4,-5 -1,-5 6,-1 11,6 10,12 -4,27 -9,10 -18,19 -19,19 -1,0 -12,-12 -26,-27 z"
       id="path70"
       style="fill:#f6fdfa;fill-opacity:1" />
    <path
       d="m 37854,15546 c 1,-8 5,-18 8,-22 4,-3 5,1 4,10 -1,8 -5,18 -8,22 -4,3 -5,-1 -4,-10 z"
       id="path71"
       style="fill:#f6fdfa;fill-opacity:1" />
    <path
       d="m 34696,15531 c -13,-14 -14,-21 -5,-27 7,-4 10,-3 6,3 -8,13 17,36 28,25 5,-4 5,-1 1,6 -9,16 -10,15 -30,-7 z"
       id="path72"
       style="fill:#f6fdfa;fill-opacity:1" />
    <path
       d="m 34389,15523 c -12,-16 -12,-17 2,-6 9,7 20,9 24,5 5,-4 5,-1 1,6 -9,16 -11,15 -27,-5 z"
       id="path73"
       style="fill:#f6fdfa;fill-opacity:1" />
    <path
       d="m 36669,15523 c -12,-16 -12,-17 2,-6 9,7 20,9 24,5 5,-4 5,-1 1,6 -9,16 -11,15 -27,-5 z"
       id="path74"
       style="fill:#f6fdfa;fill-opacity:1" />
    <path
       d="m 34599,15513 c -13,-16 -12,-17 4,-4 16,13 21,21 13,21 -2,0 -10,-8 -17,-17 z"
       id="path75"
       style="fill:#f6fdfa;fill-opacity:1" />
    <path
       d="m 34825,15521 c -3,-5 -2,-12 3,-15 5,-3 9,1 9,9 0,17 -3,19 -12,6 z"
       id="path76"
       style="fill:#f6fdfa;fill-opacity:1" />
    <path
       d="m 37423,15515 c 0,-8 4,-12 9,-9 5,3 6,10 3,15 -9,13 -12,11 -12,-6 z"
       id="path77"
       style="fill:#f6fdfa;fill-opacity:1" />
    <path
       d="m 37259,15503 c -13,-16 -12,-17 4,-4 9,7 17,15 17,17 0,8 -8,3 -21,-13 z"
       id="path78"
       style="fill:#f6fdfa;fill-opacity:1" />
    <path
       d="m 34499,15483 c -13,-16 -12,-17 4,-4 9,7 17,15 17,17 0,8 -8,3 -21,-13 z"
       id="path79"
       style="fill:#f6fdfa;fill-opacity:1" />
    <path
       d="m 35029,15483 c -13,-16 -12,-17 4,-4 9,7 17,15 17,17 0,8 -8,3 -21,-13 z"
       id="path80"
       style="fill:#f6fdfa;fill-opacity:1" />
    <path
       d="m 36709,15483 c -13,-16 -12,-17 4,-4 9,7 17,15 17,17 0,8 -8,3 -21,-13 z"
       id="path81"
       style="fill:#f6fdfa;fill-opacity:1" />
    <path
       d="m 33955,13241 c -82,-48 -393,-229 -690,-401 -297,-172 -763,-442 -1035,-600 -272,-158 -722,-419 -1000,-580 -278,-161 -584,-339 -680,-394 -96,-56 -248,-144 -337,-196 -89,-52 -161,-95 -160,-96 2,-2 1807,-1050 2147,-1247 124,-71 261,-151 305,-177 44,-26 170,-99 280,-163 110,-64 452,-262 760,-441 l 560,-325 3,1180 c 1,650 1,1709 0,2354 l -3,1173 z"
       id="path82"
       style="fill:#f6fdfa;fill-opacity:1" />
    <path
       d="m 12935,8755 c -474,-133 -816,-306 -1036,-525 -79,-78 -103,-110 -137,-180 -23,-47 -52,-121 -65,-165 l -22,-80 -3,-3247 -2,-3248 h 695 695 v 3740 c 0,2057 -1,3740 -2,3739 -2,0 -57,-15 -123,-34 z"
       id="path83"
       style="fill:#f6fdfa;fill-opacity:1" />
    <path
       d="m 27105,6820 c -409,-59 -701,-162 -917,-322 -144,-107 -218,-202 -266,-342 l -27,-81 -3,-2382 -2,-2383 h 680 680 v 1783 c 0,1731 1,1786 19,1859 80,312 373,551 768,628 123,24 346,29 473,10 378,-54 655,-248 757,-528 60,-163 56,-46 60,-1979 l 4,-1773 h 664 664 l 3,1787 c 4,2014 -4,1822 83,2000 119,242 399,429 730,488 108,19 338,22 450,5 379,-56 640,-233 752,-510 61,-152 57,-25 60,-1982 l 3,-1788 h 685 685 l -3,2048 c -3,2047 -3,2047 -24,2132 -100,400 -326,714 -688,956 -282,187 -580,296 -975,356 -133,20 -548,17 -690,-5 -353,-56 -679,-185 -952,-377 -100,-70 -294,-252 -355,-331 l -37,-49 -55,62 c -271,312 -643,537 -1067,644 -185,47 -313,64 -519,71 -268,9 -456,-18 -700,-99 -300,-99 -580,-280 -730,-471 l -60,-76 -3,334 c -2,259 -5,335 -15,334 -6,-1 -66,-9 -132,-19 z"
       id="path84"
       style="fill:#f6fdfa;fill-opacity:1" />
    <path
       d="M 2776,6809 C 2189,6749 1663,6537 1230,6187 1108,6088 913,5892 816,5769 514,5386 323,4942 245,4440 c -23,-144 -31,-530 -16,-712 62,-736 332,-1339 803,-1794 195,-188 378,-318 621,-440 532,-268 1078,-355 1817,-288 457,42 850,145 1189,312 205,102 269,173 291,327 5,39 10,251 10,473 v 402 l -57,-29 c -178,-89 -538,-214 -773,-267 -378,-85 -798,-97 -1122,-33 -645,129 -1069,508 -1221,1094 -50,190 -61,283 -61,525 -1,196 2,239 22,338 31,152 72,276 136,407 188,384 515,643 919,726 178,37 467,27 682,-23 258,-60 516,-193 767,-397 l 86,-70 434,466 c 238,256 434,469 436,473 4,11 -225,219 -343,310 -401,311 -821,484 -1345,556 -137,18 -612,27 -744,13 z"
       id="path85"
       style="fill:#f6fdfa;fill-opacity:1" />
    <path
       d="m 7980,6813 c -105,-8 -334,-45 -445,-72 -250,-61 -488,-157 -687,-276 -526,-315 -908,-808 -1107,-1429 -189,-591 -205,-1286 -44,-1886 202,-754 681,-1349 1348,-1675 461,-225 955,-317 1530,-285 535,29 936,113 1311,274 247,106 343,176 385,282 24,58 24,63 27,502 2,243 1,442 -1,442 -3,0 -36,-14 -74,-31 -379,-172 -795,-284 -1183,-320 -162,-14 -462,-7 -605,16 -702,109 -1166,481 -1320,1057 -14,51 -25,96 -25,101 0,4 848,7 1885,7 h 1885 l 7,28 c 5,15 8,178 8,362 -1,370 -14,511 -76,814 -129,629 -421,1161 -834,1516 -380,327 -861,517 -1440,570 -101,9 -438,11 -545,3 z m 499,-1158 c 422,-69 733,-353 880,-802 32,-99 66,-258 77,-366 l 7,-67 H 8251 7060 v 21 c 0,40 22,165 46,260 123,496 486,863 940,953 95,19 318,19 433,1 z"
       id="path86"
       style="fill:#f6fdfa;fill-opacity:1" />
    <path
       d="m 16490,6813 c -103,-8 -343,-46 -455,-73 -529,-126 -962,-366 -1336,-739 -443,-444 -697,-961 -791,-1616 -20,-142 -17,-627 6,-795 115,-861 499,-1512 1144,-1941 517,-343 1136,-498 1844,-460 583,31 1013,130 1403,321 180,88 241,135 279,213 39,80 46,161 46,594 v 402 l -82,-38 c -371,-171 -787,-287 -1161,-322 -159,-15 -483,-7 -622,16 -696,111 -1152,506 -1309,1133 -32,128 -45,219 -56,382 -32,489 112,917 414,1227 281,291 614,411 1058,382 381,-25 733,-173 1059,-445 l 77,-64 434,466 c 238,256 434,470 436,474 2,4 -43,51 -100,103 -589,548 -1226,792 -2048,785 -107,-1 -215,-3 -240,-5 z"
       id="path87"
       style="fill:#f6fdfa;fill-opacity:1" />
    <path
       d="m 21850,6813 c -164,-16 -253,-28 -364,-49 -944,-183 -1724,-810 -2085,-1677 -283,-680 -288,-1501 -15,-2172 305,-746 904,-1303 1689,-1572 314,-107 625,-156 990,-156 301,0 528,28 799,98 1027,264 1808,1033 2062,2029 68,265 88,464 81,784 -7,328 -40,529 -133,812 -348,1061 -1304,1789 -2494,1899 -105,10 -446,13 -530,4 z m 338,-1223 c 536,-48 973,-345 1221,-830 285,-556 229,-1303 -134,-1789 -212,-285 -513,-476 -868,-553 -139,-30 -467,-33 -594,-5 -612,135 -1072,619 -1203,1266 -26,131 -37,301 -29,462 41,791 590,1381 1346,1448 128,12 137,12 261,1 z"
       id="path88"
       style="fill:#f6fdfa;fill-opacity:1" />
    <path
       d="m 34400,6735 v -45 h 120 120 l 2,-342 3,-343 47,-3 48,-3 2,343 3,343 123,3 122,3 v 44 45 h -295 -295 z"
       id="path89"
       style="fill:#f6fdfa;fill-opacity:1" />
    <path
       d="m 35100,6390 v -390 h 50 50 v 340 c 0,187 3,340 8,340 4,0 65,-153 136,-340 l 130,-341 49,3 50,3 131,338 c 72,185 134,337 138,337 4,0 8,-153 8,-340 v -340 h 50 50 v 390 390 h -89 -89 l -118,-320 c -66,-176 -122,-320 -125,-320 -3,0 -59,144 -124,320 l -119,320 h -93 -93 z"
       id="path90"
       style="fill:#f6fdfa;fill-opacity:1" />
  </g>
</svg>
